<?xml version="1.0" encoding="utf-8"?>
<!-- Generator: Adobe Illustrator 24.1.3, SVG Export Plug-In . SVG Version: 6.00 Build 0)  -->
<svg version="1.1" id="Calque_1" xmlns="http://www.w3.org/2000/svg" xmlns:xlink="http://www.w3.org/1999/xlink" x="0px" y="0px"
	 viewBox="0 0 287 208" style="enable-background:new 0 0 287 208;" xml:space="preserve">
<style type="text/css">
	.st0{opacity:0.1;}
	.st1{fill:#FFFFFF;}
	.st2{fill:#24A7A4;}
	.st3{enable-background:new    ;}
</style>
<g id="Groupe_165" transform="translate(194 84.564) rotate(180)" class="st0">
	<g id="arrow-back">
		<path id="Tracé_305" class="st1" d="M101.8-24.5H-72.1l29.6-29.6l-7.4-7.4l-42.3,42.3l42.3,42.3l7.4-7.4l-29.6-29.6h173.9V-24.5z
			"/>
	</g>
</g>
<ellipse id="Ellipse_30_2_" class="st2" cx="103.1" cy="103.5" rx="103" ry="103"/>
<g class="st3">
	<path class="st1" d="M78.8,94.7l-0.8-2h-4.8l-0.8,2h-3l4.8-11.2h3l4.7,11.2H78.8z M74,90.5h3.1l-1.5-4L74,90.5z"/>
	<path class="st1" d="M90,88.9h2.5v4.5c-0.6,0.4-1.3,0.8-2.2,1.1c-0.9,0.3-1.7,0.4-2.5,0.4c-1.1,0-2.2-0.3-3.1-0.8s-1.6-1.2-2.2-2.1
		c-0.5-0.9-0.8-1.9-0.8-3c0-1.1,0.3-2.1,0.8-3c0.5-0.9,1.3-1.6,2.2-2.1c0.9-0.5,2-0.8,3.2-0.8c0.8,0,1.7,0.2,2.5,0.5
		c0.8,0.3,1.5,0.7,2.1,1.2L91,87c-0.4-0.4-0.9-0.7-1.4-0.9c-0.5-0.2-1-0.3-1.6-0.3c-0.6,0-1.1,0.1-1.6,0.4c-0.5,0.3-0.9,0.7-1.1,1.2
		s-0.4,1.1-0.4,1.7c0,0.6,0.1,1.2,0.4,1.7s0.7,0.9,1.2,1.2c0.5,0.3,1,0.4,1.6,0.4c0.6,0,1.2-0.2,1.9-0.5V88.9z"/>
	<path class="st1" d="M94.5,83.5h2.9v11.2h-2.9V83.5z"/>
	<path class="st1" d="M99.6,83.5h2.9v8.7h4.8v2.5h-7.7V83.5z"/>
	<path class="st1" d="M108.6,83.5h2.9v11.2h-2.9V83.5z"/>
	<path class="st1" d="M112.7,83.5h9.6v2.4H119v8.8H116v-8.8h-3.3V83.5z"/>
	<path class="st1" d="M123.5,83.5h8.8v2.3h-5.9v2.1h5.3v2.3l-5.3,0v2.1h6.1v2.3h-9V83.5z M128.5,79.9l2.4,0.9l-2.3,1.8l-2-0.2
		L128.5,79.9z"/>
	<path class="st1" d="M29.4,108.7H39v2.4h-3.4v8.8h-2.9v-8.8h-3.3V108.7z"/>
	<path class="st1" d="M40.2,108.7H49v2.3h-5.9v2.1h5.3v2.3l-5.3,0v2.1h6.1v2.3h-9V108.7z"/>
	<path class="st1" d="M57.8,111.4c-0.5-0.3-1-0.4-1.5-0.4c-0.6,0-1.1,0.1-1.5,0.4c-0.5,0.3-0.8,0.7-1.1,1.2s-0.4,1-0.4,1.7
		s0.1,1.2,0.4,1.7s0.6,0.9,1.1,1.2s1,0.4,1.5,0.4c0.5,0,0.9-0.1,1.4-0.4c0.5-0.2,0.9-0.6,1.3-1l1.7,1.8c-0.6,0.6-1.3,1.1-2.2,1.5
		c-0.8,0.4-1.7,0.6-2.5,0.6c-1.1,0-2.1-0.3-3-0.8c-0.9-0.5-1.6-1.2-2.1-2.1c-0.5-0.9-0.8-1.9-0.8-3c0-1.1,0.3-2.1,0.8-2.9
		c0.5-0.9,1.2-1.6,2.2-2.1c0.9-0.5,1.9-0.8,3.1-0.8c0.8,0,1.7,0.2,2.5,0.5s1.5,0.8,2.1,1.4l-1.7,2C58.7,112,58.3,111.6,57.8,111.4z"
		/>
	<path class="st1" d="M62.1,108.7H65v4.6h4.5v-4.6h2.9v11.2h-2.9v-4.3H65v4.3h-2.9V108.7z"/>
	<path class="st1" d="M82.3,108.7H85v11.2h-2.6l-5.1-6.7v6.7h-2.7v-11.2h2.6l5.1,6.8L82.3,108.7z"/>
	<path class="st1" d="M95.6,109.2c0.9,0.5,1.6,1.2,2.2,2.1c0.5,0.9,0.8,1.9,0.8,2.9c0,1.1-0.3,2.1-0.8,3c-0.5,0.9-1.3,1.6-2.2,2.1
		c-0.9,0.5-2,0.8-3.1,0.8s-2.2-0.3-3.1-0.8c-0.9-0.5-1.6-1.2-2.2-2.1c-0.5-0.9-0.8-1.9-0.8-3c0-1.1,0.3-2.1,0.8-2.9
		c0.5-0.9,1.3-1.6,2.2-2.1c0.9-0.5,2-0.8,3.1-0.8S94.7,108.7,95.6,109.2z M91,111.4c-0.5,0.3-0.9,0.7-1.1,1.2s-0.4,1.1-0.4,1.7
		c0,0.6,0.1,1.2,0.4,1.7c0.3,0.5,0.7,0.9,1.1,1.2c0.5,0.3,1,0.4,1.5,0.4s1.1-0.1,1.5-0.4c0.5-0.3,0.8-0.7,1.1-1.2s0.4-1.1,0.4-1.7
		c0-0.6-0.1-1.2-0.4-1.7s-0.6-0.9-1.1-1.2c-0.5-0.3-1-0.4-1.5-0.4S91.5,111.1,91,111.4z"/>
	<path class="st1" d="M100.1,108.7h2.9v8.7h4.8v2.5h-7.7V108.7z"/>
	<path class="st1" d="M117.5,109.2c0.9,0.5,1.6,1.2,2.2,2.1c0.5,0.9,0.8,1.9,0.8,2.9c0,1.1-0.3,2.1-0.8,3c-0.5,0.9-1.3,1.6-2.2,2.1
		c-0.9,0.5-2,0.8-3.1,0.8s-2.2-0.3-3.1-0.8c-0.9-0.5-1.6-1.2-2.2-2.1c-0.5-0.9-0.8-1.9-0.8-3c0-1.1,0.3-2.1,0.8-2.9
		c0.5-0.9,1.3-1.6,2.2-2.1c0.9-0.5,2-0.8,3.1-0.8S116.6,108.7,117.5,109.2z M112.9,111.4c-0.5,0.3-0.9,0.7-1.1,1.2s-0.4,1.1-0.4,1.7
		c0,0.6,0.1,1.2,0.4,1.7c0.3,0.5,0.7,0.9,1.1,1.2c0.5,0.3,1,0.4,1.5,0.4s1.1-0.1,1.5-0.4c0.5-0.3,0.8-0.7,1.1-1.2s0.4-1.1,0.4-1.7
		c0-0.6-0.1-1.2-0.4-1.7s-0.6-0.9-1.1-1.2c-0.5-0.3-1-0.4-1.5-0.4S113.4,111.1,112.9,111.4z"/>
	<path class="st1" d="M129.2,114.1h2.5v4.5c-0.6,0.4-1.3,0.8-2.2,1.1c-0.9,0.3-1.7,0.4-2.5,0.4c-1.1,0-2.2-0.3-3.1-0.8
		s-1.6-1.2-2.2-2.1c-0.5-0.9-0.8-1.9-0.8-3c0-1.1,0.3-2.1,0.8-3c0.5-0.9,1.3-1.6,2.2-2.1c0.9-0.5,2-0.8,3.2-0.8
		c0.8,0,1.7,0.2,2.5,0.5c0.8,0.3,1.5,0.7,2.1,1.2l-1.7,2c-0.4-0.4-0.9-0.7-1.4-0.9c-0.5-0.2-1-0.3-1.6-0.3c-0.6,0-1.1,0.1-1.6,0.4
		c-0.5,0.3-0.9,0.7-1.1,1.2s-0.4,1.1-0.4,1.7c0,0.6,0.1,1.2,0.4,1.7s0.7,0.9,1.2,1.2c0.5,0.3,1,0.4,1.6,0.4c0.6,0,1.2-0.2,1.9-0.5
		V114.1z"/>
	<path class="st1" d="M133.6,108.7h2.9v11.2h-2.9V108.7z"/>
	<path class="st1" d="M150.7,121.3c-0.4,0.4-0.9,0.7-1.5,0.9c-0.6,0.2-1.2,0.3-1.7,0.3c-0.8,0-1.5-0.2-2.1-0.7
		c-0.6-0.4-1.1-1-1.5-1.8c-1.1,0-2.1-0.3-3-0.8c-0.9-0.5-1.6-1.2-2.1-2.1c-0.5-0.9-0.8-1.9-0.8-2.9c0-1.1,0.3-2.1,0.8-2.9
		c0.5-0.9,1.3-1.6,2.2-2.1c0.9-0.5,2-0.8,3.1-0.8s2.2,0.2,3.1,0.8c0.9,0.5,1.6,1.2,2.2,2.1c0.5,0.9,0.8,1.9,0.8,2.9
		c0,1.2-0.3,2.3-1,3.3c-0.7,1-1.5,1.7-2.7,2.1c0.4,0.5,0.8,0.7,1.3,0.7c0.3,0,0.6-0.1,0.9-0.2s0.7-0.4,1-0.6L150.7,121.3z
		 M141.5,115.9c0.3,0.5,0.7,0.9,1.1,1.2c0.5,0.3,1,0.4,1.5,0.4s1.1-0.1,1.5-0.4c0.5-0.3,0.8-0.7,1.1-1.2s0.4-1.1,0.4-1.7
		c0-0.6-0.1-1.2-0.4-1.7s-0.6-0.9-1.1-1.2c-0.5-0.3-1-0.4-1.5-0.4s-1.1,0.1-1.5,0.4c-0.5,0.3-0.9,0.7-1.1,1.2s-0.4,1.1-0.4,1.7
		C141,114.9,141.2,115.4,141.5,115.9z"/>
	<path class="st1" d="M155,116.9c0.4,0.4,0.9,0.6,1.6,0.6c0.6,0,1.1-0.2,1.5-0.6c0.4-0.4,0.6-1,0.6-1.7v-6.6h2.9v6.6
		c0,1-0.2,1.8-0.6,2.6c-0.4,0.7-1,1.3-1.8,1.7s-1.7,0.6-2.7,0.6c-1,0-1.9-0.2-2.7-0.6s-1.4-1-1.8-1.7c-0.4-0.7-0.6-1.6-0.6-2.6v-6.6
		h2.9v6.6C154.4,116,154.6,116.5,155,116.9z"/>
	<path class="st1" d="M163.7,108.7h8.8v2.3h-5.9v2.1h5.3v2.3l-5.3,0v2.1h6.1v2.3h-9V108.7z"/>
</g>
</svg>
