<?xml version="1.0" encoding="utf-8"?>
<!-- Generator: Adobe Illustrator 24.1.3, SVG Export Plug-In . SVG Version: 6.00 Build 0)  -->
<svg version="1.1" id="Calque_1" xmlns="http://www.w3.org/2000/svg" xmlns:xlink="http://www.w3.org/1999/xlink" x="0px" y="0px"
	 viewBox="0 0 287 208" style="enable-background:new 0 0 287 208;" xml:space="preserve">
<style type="text/css">
	.st0{opacity:0.1;}
	.st1{fill:#FFFFFF;}
	.st2{enable-background:new    ;}
	.st3{fill:#102242;}
</style>
<g id="Groupe_165" transform="translate(194 84.564) rotate(180)" class="st0">
	<g id="arrow-back">
		<path id="Tracé_305" class="st1" d="M101.8-24.5H-72.1l29.6-29.6l-7.4-7.4l-42.3,42.3l42.3,42.3l7.4-7.4l-29.6-29.6h173.9V-24.5z
			"/>
	</g>
</g>
<ellipse id="Ellipse_30" class="st1" cx="104.2" cy="103.8" rx="103" ry="103"/>
<g class="st2">
	<path class="st3" d="M81.6,81.6l-0.8-2H76l-0.8,2h-3L77,70.4h3l4.7,11.2H81.6z M76.9,77.4H80l-1.5-4L76.9,77.4z"/>
	<path class="st3" d="M92.9,75.9h2.5v4.5c-0.6,0.4-1.3,0.8-2.2,1.1c-0.9,0.3-1.7,0.4-2.5,0.4c-1.1,0-2.2-0.3-3.1-0.8
		c-0.9-0.5-1.6-1.2-2.2-2.1c-0.5-0.9-0.8-1.9-0.8-3c0-1.1,0.3-2.1,0.8-3c0.5-0.9,1.3-1.6,2.2-2.1c0.9-0.5,2-0.8,3.2-0.8
		c0.8,0,1.7,0.2,2.5,0.5c0.8,0.3,1.5,0.7,2.1,1.2l-1.7,2c-0.4-0.4-0.9-0.7-1.4-0.9c-0.5-0.2-1-0.3-1.6-0.3c-0.6,0-1.1,0.1-1.6,0.4
		c-0.5,0.3-0.9,0.7-1.1,1.2s-0.4,1.1-0.4,1.7c0,0.6,0.1,1.2,0.4,1.7s0.7,0.9,1.2,1.2c0.5,0.3,1,0.4,1.6,0.4c0.6,0,1.2-0.2,1.9-0.5
		V75.9z"/>
	<path class="st3" d="M97.3,70.4h2.9v11.2h-2.9V70.4z"/>
	<path class="st3" d="M102.4,70.4h2.9v8.7h4.8v2.5h-7.7V70.4z"/>
	<path class="st3" d="M111.4,70.4h2.9v11.2h-2.9V70.4z"/>
	<path class="st3" d="M115.6,70.4h9.6v2.4h-3.4v8.8h-2.9v-8.8h-3.3V70.4z"/>
	<path class="st3" d="M126.4,70.4h8.8v2.3h-5.9v2.1h5.3v2.3l-5.3,0v2.1h6.1v2.3h-9V70.4z M131.4,66.8l2.4,0.9l-2.3,1.8l-2-0.2
		L131.4,66.8z"/>
</g>
<g class="st2">
	<path class="st3" d="M38.9,97.1c0.9,0.5,1.6,1.1,2.1,2c0.5,0.8,0.8,1.8,0.8,2.9s-0.3,2.1-0.8,2.9c-0.5,0.9-1.2,1.5-2.1,2
		c-0.9,0.5-2,0.7-3.2,0.7H31V96.4h4.8C37,96.4,38,96.6,38.9,97.1z M37.4,104.8c0.4-0.3,0.8-0.6,1-1.1c0.2-0.5,0.4-1,0.4-1.7
		c0-0.6-0.1-1.2-0.4-1.7c-0.3-0.5-0.6-0.9-1.1-1.1c-0.5-0.3-1-0.4-1.6-0.4h-1.8v6.5h2C36.4,105.2,36.9,105.1,37.4,104.8z"/>
	<path class="st3" d="M43.2,96.4h8.8v2.3h-5.9v2.1h5.3v2.3l-5.3,0v2.1h6.1v2.3h-9V96.4z"/>
	<path class="st3" d="M59.8,98.9c-0.7-0.2-1.2-0.3-1.7-0.3c-0.4,0-0.6,0.1-0.9,0.2S57,99.1,57,99.3c0,0.2,0.1,0.5,0.3,0.6
		c0.2,0.2,0.4,0.3,0.7,0.4c0.3,0.1,0.7,0.2,1.2,0.4c0.8,0.2,1.4,0.4,1.9,0.7c0.5,0.2,0.9,0.6,1.3,1c0.4,0.5,0.5,1.1,0.5,1.8
		c0,0.7-0.2,1.4-0.6,1.9s-0.9,0.9-1.6,1.2c-0.7,0.3-1.5,0.4-2.3,0.4c-0.9,0-1.9-0.2-2.8-0.5c-0.9-0.3-1.7-0.8-2.4-1.3l1.1-2.3
		c0.6,0.5,1.2,0.9,2,1.2s1.5,0.5,2.1,0.5c0.4,0,0.8-0.1,1-0.2c0.3-0.2,0.4-0.4,0.4-0.7c0-0.3-0.1-0.5-0.3-0.6
		c-0.2-0.2-0.4-0.3-0.7-0.4c-0.3-0.1-0.7-0.2-1.2-0.4c-0.8-0.2-1.4-0.4-1.9-0.6c-0.5-0.2-0.9-0.5-1.3-1c-0.4-0.4-0.5-1-0.5-1.8
		c0-0.7,0.2-1.3,0.6-1.8s0.9-0.9,1.6-1.2c0.7-0.3,1.5-0.4,2.4-0.4c0.8,0,1.6,0.1,2.4,0.3c0.8,0.2,1.5,0.5,2.1,0.9l-1.1,2.3
		C61.1,99.4,60.5,99.1,59.8,98.9z"/>
	<path class="st3" d="M74.6,107.6l-1.6-3.1h-0.1h-2.1v3.1h-2.9V96.4h5c1.5,0,2.6,0.3,3.4,1c0.8,0.7,1.2,1.7,1.2,2.9
		c0,0.8-0.2,1.6-0.5,2.2c-0.3,0.6-0.8,1.1-1.5,1.4l2.3,3.7H74.6z M70.8,102.1H73c0.6,0,1.1-0.1,1.4-0.4s0.5-0.7,0.5-1.3
		c0-0.5-0.2-1-0.5-1.3c-0.3-0.3-0.8-0.4-1.4-0.4h-2.1V102.1z"/>
	<path class="st3" d="M79.5,96.4h8.8v2.3h-5.9v2.1h5.3v2.3l-5.3,0v2.1h6.1v2.3h-9V96.4z"/>
	<path class="st3" d="M96.1,98.9c-0.7-0.2-1.2-0.3-1.7-0.3c-0.4,0-0.6,0.1-0.9,0.2s-0.3,0.3-0.3,0.6c0,0.2,0.1,0.5,0.3,0.6
		c0.2,0.2,0.4,0.3,0.7,0.4c0.3,0.1,0.7,0.2,1.2,0.4c0.8,0.2,1.4,0.4,1.9,0.7c0.5,0.2,0.9,0.6,1.3,1c0.4,0.5,0.5,1.1,0.5,1.8
		c0,0.7-0.2,1.4-0.6,1.9s-0.9,0.9-1.6,1.2c-0.7,0.3-1.5,0.4-2.3,0.4c-0.9,0-1.9-0.2-2.8-0.5c-0.9-0.3-1.7-0.8-2.4-1.3l1.1-2.3
		c0.6,0.5,1.2,0.9,2,1.2s1.5,0.5,2.1,0.5c0.4,0,0.8-0.1,1-0.2c0.3-0.2,0.4-0.4,0.4-0.7c0-0.3-0.1-0.5-0.3-0.6
		c-0.2-0.2-0.4-0.3-0.7-0.4c-0.3-0.1-0.7-0.2-1.2-0.4c-0.8-0.2-1.4-0.4-1.9-0.6c-0.5-0.2-0.9-0.5-1.3-1c-0.4-0.4-0.5-1-0.5-1.8
		c0-0.7,0.2-1.3,0.6-1.8s0.9-0.9,1.6-1.2c0.7-0.3,1.5-0.4,2.4-0.4c0.8,0,1.6,0.1,2.4,0.3c0.8,0.2,1.5,0.5,2.1,0.9L98,99.7
		C97.4,99.4,96.8,99.1,96.1,98.9z"/>
	<path class="st3" d="M106.4,98.9c-0.7-0.2-1.2-0.3-1.7-0.3c-0.4,0-0.6,0.1-0.9,0.2s-0.3,0.3-0.3,0.6c0,0.2,0.1,0.5,0.3,0.6
		c0.2,0.2,0.4,0.3,0.7,0.4c0.3,0.1,0.7,0.2,1.2,0.4c0.8,0.2,1.4,0.4,1.9,0.7c0.5,0.2,0.9,0.6,1.3,1c0.4,0.5,0.5,1.1,0.5,1.8
		c0,0.7-0.2,1.4-0.6,1.9s-0.9,0.9-1.6,1.2c-0.7,0.3-1.5,0.4-2.3,0.4c-0.9,0-1.9-0.2-2.8-0.5c-0.9-0.3-1.7-0.8-2.4-1.3l1.1-2.3
		c0.6,0.5,1.2,0.9,2,1.2s1.5,0.5,2.1,0.5c0.4,0,0.8-0.1,1-0.2c0.3-0.2,0.4-0.4,0.4-0.7c0-0.3-0.1-0.5-0.3-0.6
		c-0.2-0.2-0.4-0.3-0.7-0.4c-0.3-0.1-0.7-0.2-1.2-0.4c-0.8-0.2-1.4-0.4-1.9-0.6c-0.5-0.2-0.9-0.5-1.3-1c-0.4-0.4-0.5-1-0.5-1.8
		c0-0.7,0.2-1.3,0.6-1.8s0.9-0.9,1.6-1.2c0.7-0.3,1.5-0.4,2.4-0.4c0.8,0,1.6,0.1,2.4,0.3c0.8,0.2,1.5,0.5,2.1,0.9l-1.1,2.3
		C107.8,99.4,107.1,99.1,106.4,98.9z"/>
	<path class="st3" d="M119.4,96.9c0.9,0.5,1.6,1.2,2.2,2.1c0.5,0.9,0.8,1.9,0.8,2.9c0,1.1-0.3,2.1-0.8,3c-0.5,0.9-1.3,1.6-2.2,2.1
		c-0.9,0.5-2,0.8-3.1,0.8s-2.2-0.3-3.1-0.8c-0.9-0.5-1.6-1.2-2.2-2.1c-0.5-0.9-0.8-1.9-0.8-3c0-1.1,0.3-2.1,0.8-2.9
		c0.5-0.9,1.3-1.6,2.2-2.1c0.9-0.5,2-0.8,3.1-0.8S118.5,96.4,119.4,96.9z M114.8,99.1c-0.5,0.3-0.9,0.7-1.1,1.2s-0.4,1.1-0.4,1.7
		c0,0.6,0.1,1.2,0.4,1.7c0.3,0.5,0.7,0.9,1.1,1.2c0.5,0.3,1,0.4,1.5,0.4s1.1-0.1,1.5-0.4c0.5-0.3,0.8-0.7,1.1-1.2s0.4-1.1,0.4-1.7
		c0-0.6-0.1-1.2-0.4-1.7s-0.6-0.9-1.1-1.2c-0.5-0.3-1-0.4-1.5-0.4S115.3,98.8,114.8,99.1z"/>
	<path class="st3" d="M127.2,104.7c0.4,0.4,0.9,0.6,1.6,0.6c0.6,0,1.1-0.2,1.5-0.6c0.4-0.4,0.6-1,0.6-1.7v-6.6h2.9v6.6
		c0,1-0.2,1.8-0.6,2.6c-0.4,0.7-1,1.3-1.8,1.7c-0.8,0.4-1.7,0.6-2.7,0.6c-1,0-1.9-0.2-2.7-0.6s-1.4-1-1.8-1.7
		c-0.4-0.7-0.6-1.6-0.6-2.6v-6.6h2.9v6.6C126.6,103.7,126.8,104.2,127.2,104.7z"/>
	<path class="st3" d="M142.5,107.6l-1.6-3.1h-0.1h-2.1v3.1h-2.9V96.4h5c1.5,0,2.6,0.3,3.4,1c0.8,0.7,1.2,1.7,1.2,2.9
		c0,0.8-0.2,1.6-0.5,2.2c-0.3,0.6-0.8,1.1-1.5,1.4l2.3,3.7H142.5z M138.7,102.1h2.1c0.6,0,1.1-0.1,1.4-0.4c0.3-0.3,0.5-0.7,0.5-1.3
		c0-0.5-0.2-1-0.5-1.3c-0.3-0.3-0.8-0.4-1.4-0.4h-2.1V102.1z"/>
	<path class="st3" d="M154.2,99.1c-0.5-0.3-1-0.4-1.5-0.4c-0.6,0-1.1,0.1-1.5,0.4c-0.5,0.3-0.8,0.7-1.1,1.2c-0.3,0.5-0.4,1-0.4,1.7
		s0.1,1.2,0.4,1.7c0.3,0.5,0.6,0.9,1.1,1.2s1,0.4,1.5,0.4c0.5,0,0.9-0.1,1.4-0.4c0.5-0.2,0.9-0.6,1.3-1l1.7,1.8
		c-0.6,0.6-1.3,1.1-2.2,1.5c-0.8,0.4-1.7,0.6-2.5,0.6c-1.1,0-2.1-0.3-3-0.8c-0.9-0.5-1.6-1.2-2.1-2.1c-0.5-0.9-0.8-1.9-0.8-3
		c0-1.1,0.3-2.1,0.8-2.9c0.5-0.9,1.2-1.6,2.2-2.1c0.9-0.5,1.9-0.8,3.1-0.8c0.8,0,1.7,0.2,2.5,0.5s1.5,0.8,2.1,1.4l-1.7,2
		C155.1,99.7,154.7,99.3,154.2,99.1z"/>
	<path class="st3" d="M158.5,96.4h8.8v2.3h-5.9v2.1h5.3v2.3l-5.3,0v2.1h6.1v2.3h-9V96.4z"/>
	<path class="st3" d="M175.1,98.9c-0.7-0.2-1.2-0.3-1.7-0.3c-0.4,0-0.6,0.1-0.9,0.2s-0.3,0.3-0.3,0.6c0,0.2,0.1,0.5,0.3,0.6
		c0.2,0.2,0.4,0.3,0.7,0.4c0.3,0.1,0.7,0.2,1.2,0.4c0.8,0.2,1.4,0.4,1.9,0.7c0.5,0.2,0.9,0.6,1.3,1c0.4,0.5,0.5,1.1,0.5,1.8
		c0,0.7-0.2,1.4-0.6,1.9s-0.9,0.9-1.6,1.2c-0.7,0.3-1.5,0.4-2.3,0.4c-0.9,0-1.9-0.2-2.8-0.5c-0.9-0.3-1.7-0.8-2.4-1.3l1.1-2.3
		c0.6,0.5,1.2,0.9,2,1.2c0.8,0.3,1.5,0.5,2.1,0.5c0.4,0,0.8-0.1,1-0.2c0.2-0.2,0.4-0.4,0.4-0.7c0-0.3-0.1-0.5-0.3-0.6
		c-0.2-0.2-0.4-0.3-0.7-0.4s-0.7-0.2-1.2-0.4c-0.8-0.2-1.4-0.4-1.9-0.6c-0.5-0.2-0.9-0.5-1.3-1s-0.5-1-0.5-1.8
		c0-0.7,0.2-1.3,0.6-1.8s0.9-0.9,1.6-1.2c0.7-0.3,1.5-0.4,2.4-0.4c0.8,0,1.6,0.1,2.4,0.3s1.5,0.5,2.1,0.9l-1.1,2.3
		C176.4,99.4,175.8,99.1,175.1,98.9z"/>
</g>
<g class="st2">
	<path class="st3" d="M59.9,122.4h2.9v4.6h4.5v-4.6h2.9v11.2h-2.9v-4.3h-4.5v4.3h-2.9V122.4z"/>
	<path class="st3" d="M75.8,130.7c0.4,0.4,0.9,0.6,1.6,0.6c0.6,0,1.1-0.2,1.5-0.6c0.4-0.4,0.6-1,0.6-1.7v-6.6h2.9v6.6
		c0,1-0.2,1.8-0.6,2.6c-0.4,0.7-1,1.3-1.8,1.7s-1.7,0.6-2.7,0.6c-1,0-1.9-0.2-2.7-0.6s-1.4-1-1.8-1.7c-0.4-0.7-0.6-1.6-0.6-2.6v-6.6
		h2.9v6.6C75.2,129.7,75.4,130.2,75.8,130.7z"/>
	<path class="st3" d="M84.4,122.4h3.2l3.2,6.6l3.2-6.6h3.2v11.2h-2.6l0-7.1l-2.9,6h-1.9l-2.9-6v7.1h-2.6V122.4z"/>
	<path class="st3" d="M107.7,133.6l-0.8-2h-4.8l-0.8,2h-3l4.8-11.2h3l4.7,11.2H107.7z M103,129.4h3.1l-1.5-4L103,129.4z"/>
	<path class="st3" d="M111.8,122.4h2.9v11.2h-2.9V122.4z"/>
	<path class="st3" d="M124.6,122.4h2.7v11.2h-2.6l-5.1-6.7v6.7h-2.7v-11.2h2.6l5.1,6.8L124.6,122.4z"/>
	<path class="st3" d="M129.5,122.4h8.8v2.3h-5.9v2.1h5.3v2.3l-5.3,0v2.1h6.1v2.3h-9V122.4z"/>
	<path class="st3" d="M146.1,124.9c-0.7-0.2-1.2-0.3-1.7-0.3c-0.4,0-0.6,0.1-0.9,0.2c-0.2,0.1-0.3,0.3-0.3,0.6
		c0,0.2,0.1,0.5,0.3,0.6c0.2,0.2,0.4,0.3,0.7,0.4c0.3,0.1,0.7,0.2,1.2,0.4c0.8,0.2,1.4,0.4,1.9,0.7c0.5,0.2,0.9,0.6,1.3,1
		c0.4,0.5,0.5,1.1,0.5,1.8c0,0.7-0.2,1.4-0.6,1.9c-0.4,0.5-0.9,0.9-1.6,1.2c-0.7,0.3-1.5,0.4-2.3,0.4c-0.9,0-1.9-0.2-2.8-0.5
		c-0.9-0.3-1.7-0.8-2.4-1.3l1.1-2.3c0.6,0.5,1.2,0.9,2,1.2s1.5,0.5,2.1,0.5c0.4,0,0.8-0.1,1-0.2c0.2-0.2,0.4-0.4,0.4-0.7
		c0-0.3-0.1-0.5-0.3-0.6c-0.2-0.2-0.4-0.3-0.7-0.4c-0.3-0.1-0.7-0.2-1.2-0.4c-0.8-0.2-1.4-0.4-1.9-0.6s-0.9-0.5-1.3-1
		s-0.5-1-0.5-1.8c0-0.7,0.2-1.3,0.6-1.8c0.4-0.5,0.9-0.9,1.6-1.2c0.7-0.3,1.5-0.4,2.4-0.4c0.8,0,1.6,0.1,2.4,0.3
		c0.8,0.2,1.5,0.5,2.1,0.9l-1.1,2.3C147.5,125.4,146.8,125.1,146.1,124.9z"/>
</g>
</svg>
