<?xml version="1.0" encoding="utf-8"?>
<!-- Generator: Adobe Illustrator 24.1.3, SVG Export Plug-In . SVG Version: 6.00 Build 0)  -->
<svg version="1.1" id="Calque_1" xmlns="http://www.w3.org/2000/svg" xmlns:xlink="http://www.w3.org/1999/xlink" x="0px" y="0px"
	 viewBox="0 0 287 208" style="enable-background:new 0 0 287 208;" xml:space="preserve">
<style type="text/css">
	.st0{opacity:0.1;}
	.st1{fill:#FFFFFF;}
	.st2{fill:#39428F;}
	.st3{enable-background:new    ;}
</style>
<g id="Groupe_165" transform="translate(194 84.564) rotate(180)" class="st0">
	<g id="arrow-back">
		<path id="Tracé_305" class="st1" d="M101.8-24.5H-72.1l29.6-29.6l-7.4-7.4l-42.3,42.3l42.3,42.3l7.4-7.4l-29.6-29.6h173.9V-24.5z
			"/>
	</g>
</g>
<ellipse id="Ellipse_30_1_" class="st2" cx="104.4" cy="103.5" rx="103" ry="103"/>
<g class="st3">
	<path class="st1" d="M80,94.7l-0.8-2h-4.8l-0.8,2h-3l4.8-11.2h3l4.7,11.2H80z M75.3,90.5h3.1l-1.5-4L75.3,90.5z"/>
	<path class="st1" d="M91.3,88.9h2.5v4.5c-0.6,0.4-1.3,0.8-2.2,1.1c-0.9,0.3-1.7,0.4-2.5,0.4c-1.1,0-2.2-0.3-3.1-0.8
		s-1.6-1.2-2.2-2.1c-0.5-0.9-0.8-1.9-0.8-3c0-1.1,0.3-2.1,0.8-3c0.5-0.9,1.3-1.6,2.2-2.1c0.9-0.5,2-0.8,3.2-0.8
		c0.8,0,1.7,0.2,2.5,0.5c0.8,0.3,1.5,0.7,2.1,1.2l-1.7,2c-0.4-0.4-0.9-0.7-1.4-0.9c-0.5-0.2-1-0.3-1.6-0.3c-0.6,0-1.1,0.1-1.6,0.4
		c-0.5,0.3-0.9,0.7-1.1,1.2s-0.4,1.1-0.4,1.7c0,0.6,0.1,1.2,0.4,1.7s0.7,0.9,1.2,1.2c0.5,0.3,1,0.4,1.6,0.4c0.6,0,1.2-0.2,1.9-0.5
		V88.9z"/>
	<path class="st1" d="M95.7,83.5h2.9v11.2h-2.9V83.5z"/>
	<path class="st1" d="M100.8,83.5h2.9v8.7h4.8v2.5h-7.7V83.5z"/>
	<path class="st1" d="M109.8,83.5h2.9v11.2h-2.9V83.5z"/>
	<path class="st1" d="M114,83.5h9.6v2.4h-3.4v8.8h-2.9v-8.8H114V83.5z"/>
	<path class="st1" d="M124.8,83.5h8.8v2.3h-5.9v2.1h5.3v2.3l-5.3,0v2.1h6.1v2.3h-9V83.5z M129.7,79.9l2.4,0.9l-2.3,1.8l-2-0.2
		L129.7,79.9z"/>
	<path class="st1" d="M21.9,109.2c0.9,0.5,1.6,1.2,2.2,2.1c0.5,0.9,0.8,1.9,0.8,2.9c0,1.1-0.3,2.1-0.8,3c-0.5,0.9-1.3,1.6-2.2,2.1
		c-0.9,0.5-2,0.8-3.1,0.8s-2.2-0.3-3.1-0.8c-0.9-0.5-1.6-1.2-2.2-2.1c-0.5-0.9-0.8-1.9-0.8-3c0-1.1,0.3-2.1,0.8-2.9
		c0.5-0.9,1.3-1.6,2.2-2.1c0.9-0.5,2-0.8,3.1-0.8S21,108.7,21.9,109.2z M17.3,111.4c-0.5,0.3-0.9,0.7-1.1,1.2
		c-0.3,0.5-0.4,1.1-0.4,1.7c0,0.6,0.1,1.2,0.4,1.7c0.3,0.5,0.7,0.9,1.1,1.2c0.5,0.3,1,0.4,1.5,0.4s1.1-0.1,1.5-0.4
		c0.5-0.3,0.8-0.7,1.1-1.2s0.4-1.1,0.4-1.7c0-0.6-0.1-1.2-0.4-1.7s-0.6-0.9-1.1-1.2c-0.5-0.3-1-0.4-1.5-0.4S17.8,111.1,17.3,111.4z"
		/>
	<path class="st1" d="M33.1,119.9l-1.6-3.1h-0.1h-2.1v3.1h-2.9v-11.2h5c1.5,0,2.6,0.3,3.4,1c0.8,0.7,1.2,1.7,1.2,2.9
		c0,0.8-0.2,1.6-0.5,2.2s-0.8,1.1-1.5,1.4l2.3,3.7H33.1z M29.3,114.4h2.1c0.6,0,1.1-0.1,1.4-0.4s0.5-0.7,0.5-1.3
		c0-0.5-0.2-1-0.5-1.3c-0.3-0.3-0.8-0.4-1.4-0.4h-2.1V114.4z"/>
	<path class="st1" d="M45.3,114.1h2.5v4.5c-0.6,0.4-1.3,0.8-2.2,1.1c-0.9,0.3-1.7,0.4-2.5,0.4c-1.1,0-2.2-0.3-3.1-0.8
		c-0.9-0.5-1.6-1.2-2.2-2.1c-0.5-0.9-0.8-1.9-0.8-3c0-1.1,0.3-2.1,0.8-3c0.5-0.9,1.3-1.6,2.2-2.1c0.9-0.5,2-0.8,3.2-0.8
		c0.8,0,1.7,0.2,2.5,0.5c0.8,0.3,1.5,0.7,2.1,1.2l-1.7,2c-0.4-0.4-0.9-0.7-1.4-0.9c-0.5-0.2-1-0.3-1.6-0.3c-0.6,0-1.1,0.1-1.6,0.4
		c-0.5,0.3-0.9,0.7-1.1,1.2s-0.4,1.1-0.4,1.7c0,0.6,0.1,1.2,0.4,1.7s0.7,0.9,1.2,1.2c0.5,0.3,1,0.4,1.6,0.4c0.6,0,1.2-0.2,1.9-0.5
		V114.1z"/>
	<path class="st1" d="M58.1,119.9l-0.8-2h-4.8l-0.8,2h-3l4.8-11.2h3l4.7,11.2H58.1z M53.3,115.7h3.1l-1.5-4L53.3,115.7z"/>
	<path class="st1" d="M69.8,108.7h2.7v11.2H70l-5.1-6.7v6.7h-2.7v-11.2h2.6l5.1,6.8L69.8,108.7z"/>
	<path class="st1" d="M74.8,108.7h2.9v11.2h-2.9V108.7z"/>
	<path class="st1" d="M85.7,111.2c-0.7-0.2-1.2-0.3-1.7-0.3c-0.4,0-0.6,0.1-0.9,0.2c-0.2,0.1-0.3,0.3-0.3,0.6c0,0.2,0.1,0.5,0.3,0.6
		c0.2,0.2,0.4,0.3,0.7,0.4c0.3,0.1,0.7,0.2,1.2,0.4c0.8,0.2,1.4,0.4,1.9,0.7c0.5,0.2,0.9,0.6,1.3,1c0.4,0.5,0.5,1.1,0.5,1.8
		c0,0.7-0.2,1.4-0.6,1.9c-0.4,0.5-0.9,0.9-1.6,1.2c-0.7,0.3-1.5,0.4-2.3,0.4c-0.9,0-1.9-0.2-2.8-0.5c-0.9-0.3-1.7-0.8-2.4-1.3
		l1.1-2.3c0.6,0.5,1.2,0.9,2,1.2s1.5,0.5,2.1,0.5c0.4,0,0.8-0.1,1-0.2c0.2-0.2,0.4-0.4,0.4-0.7c0-0.3-0.1-0.5-0.3-0.6
		c-0.2-0.2-0.4-0.3-0.7-0.4c-0.3-0.1-0.7-0.2-1.2-0.4c-0.8-0.2-1.4-0.4-1.9-0.6s-0.9-0.5-1.3-1s-0.5-1-0.5-1.8
		c0-0.7,0.2-1.3,0.6-1.8c0.4-0.5,0.9-0.9,1.6-1.2c0.7-0.3,1.5-0.4,2.4-0.4c0.8,0,1.6,0.1,2.4,0.3c0.8,0.2,1.5,0.5,2.1,0.9l-1.1,2.3
		C87,111.7,86.4,111.4,85.7,111.2z"/>
	<path class="st1" d="M98.4,119.9l-0.8-2h-4.8l-0.8,2h-3l4.8-11.2h3l4.7,11.2H98.4z M93.6,115.7h3.1l-1.5-4L93.6,115.7z"/>
	<path class="st1" d="M100.3,108.7h9.6v2.4h-3.4v8.8h-2.9v-8.8h-3.3V108.7z"/>
	<path class="st1" d="M111.1,108.7h2.9v11.2h-2.9V108.7z"/>
	<path class="st1" d="M124.7,109.2c0.9,0.5,1.6,1.2,2.2,2.1c0.5,0.9,0.8,1.9,0.8,2.9c0,1.1-0.3,2.1-0.8,3c-0.5,0.9-1.3,1.6-2.2,2.1
		c-0.9,0.5-2,0.8-3.1,0.8c-1.1,0-2.2-0.3-3.1-0.8s-1.6-1.2-2.2-2.1c-0.5-0.9-0.8-1.9-0.8-3c0-1.1,0.3-2.1,0.8-2.9
		c0.5-0.9,1.3-1.6,2.2-2.1c0.9-0.5,2-0.8,3.1-0.8C122.7,108.5,123.8,108.7,124.7,109.2z M120.1,111.4c-0.5,0.3-0.9,0.7-1.1,1.2
		s-0.4,1.1-0.4,1.7c0,0.6,0.1,1.2,0.4,1.7c0.3,0.5,0.7,0.9,1.1,1.2c0.5,0.3,1,0.4,1.5,0.4s1.1-0.1,1.5-0.4c0.5-0.3,0.8-0.7,1.1-1.2
		s0.4-1.1,0.4-1.7c0-0.6-0.1-1.2-0.4-1.7s-0.6-0.9-1.1-1.2c-0.5-0.3-1-0.4-1.5-0.4S120.5,111.1,120.1,111.4z"/>
	<path class="st1" d="M136.8,108.7h2.7v11.2h-2.6l-5.1-6.7v6.7h-2.7v-11.2h2.6l5.1,6.8L136.8,108.7z"/>
	<path class="st1" d="M149.3,108.7h2.7v11.2h-2.6l-5.1-6.7v6.7h-2.7v-11.2h2.6l5.1,6.8L149.3,108.7z"/>
	<path class="st1" d="M154.3,108.7h8.8v2.3h-5.9v2.1h5.3v2.3l-5.3,0v2.1h6.1v2.3h-9V108.7z"/>
	<path class="st1" d="M165.1,108.7h2.9v8.7h4.8v2.5h-7.7V108.7z"/>
	<path class="st1" d="M174.1,108.7h2.9v8.7h4.8v2.5h-7.7V108.7z"/>
	<path class="st1" d="M183.1,108.7h8.8v2.3H186v2.1h5.3v2.3l-5.3,0v2.1h6.1v2.3h-9V108.7z"/>
</g>
</svg>
