<?xml version="1.0" encoding="utf-8"?>
<!-- Generator: Adobe Illustrator 24.1.3, SVG Export Plug-In . SVG Version: 6.00 Build 0)  -->
<svg version="1.1" id="Calque_1" xmlns="http://www.w3.org/2000/svg" xmlns:xlink="http://www.w3.org/1999/xlink" x="0px" y="0px"
	 viewBox="0 0 98.8 55.3" style="enable-background:new 0 0 98.8 55.3;" xml:space="preserve">
<style type="text/css">
	.st0{fill:#FFFFFF;}
</style>
<g id="Groupe_3" transform="translate(-109.34 -124.714)">
	<path id="Tracé_30" class="st0" d="M184.9,152.8c1.2,0.7,2.2,1.6,2.8,2.8c1.4,2.7,1.4,5.8,0,8.5c-0.7,1.2-1.6,2.2-2.8,2.8
		c-1.2,0.7-2.6,1-4,1c-1.9,0.1-3.7-0.6-4.9-2v1.8h-4.3v-22.8h4.5v8.8c1.2-1.3,2.9-2,4.7-1.9C182.3,151.8,183.7,152.1,184.9,152.8z
		 M183,163c1.5-1.8,1.5-4.5,0-6.3c-1.6-1.6-4.2-1.6-5.7,0c-1.5,1.8-1.5,4.5,0,6.3C178.9,164.6,181.4,164.6,183,163z"/>
	<path id="Tracé_31" class="st0" d="M205.9,153.5c1.3,1.4,1.9,3.3,1.8,5.2v9h-4.5v-8.3c0.1-1-0.2-2-0.8-2.8c-0.6-0.6-1.5-1-2.4-0.9
		c-1,0-2,0.3-2.7,1.1c-0.7,0.9-1.1,2-1,3.2v7.8h-4.5v-21.2l4.5-2.5v9.7c0.6-0.6,1.4-1.1,2.2-1.4c0.9-0.3,1.8-0.5,2.8-0.5
		C203,151.7,204.7,152.3,205.9,153.5z"/>
	<path id="Tracé_32" class="st0" d="M166.3,153.5c-1.3-1.2-3-1.8-4.7-1.8c-1,0-1.9,0.2-2.8,0.5c-0.8,0.3-1.6,0.8-2.2,1.4v-8.7h-4.5
		v24l4.5-2.6v-6.4c-0.1-1.1,0.3-2.3,1-3.2c0.7-0.7,1.7-1.1,2.7-1.1c0.9-0.1,1.7,0.3,2.4,0.9c0.6,0.8,0.9,1.8,0.8,2.8v8.3h4.5v-9
		C168.3,156.8,167.6,154.9,166.3,153.5z"/>
	<path id="Tracé_33" class="st0" d="M137.7,144.9v19.2l-4.6-2.6v18l12.3-6.9v-32.1L137.7,144.9z"/>
	<path id="Tracé_34" class="st0" d="M137.7,144.9V132l-12.3-6.9v32.1l7.8,4.3v-14.1L137.7,144.9z"/>
	<path id="Tracé_35" class="st0" d="M109.7,138.9V171l12.3-6.9V132L109.7,138.9z"/>
</g>
</svg>
