<?xml version="1.0" encoding="utf-8"?>
<!-- Generator: Adobe Illustrator 24.1.3, SVG Export Plug-In . SVG Version: 6.00 Build 0)  -->
<svg version="1.1" id="Calque_1" xmlns="http://www.w3.org/2000/svg" xmlns:xlink="http://www.w3.org/1999/xlink" x="0px" y="0px"
	 viewBox="0 0 25.4 33.9" style="enable-background:new 0 0 25.4 33.9;" xml:space="preserve">
<style type="text/css">
	.st0{fill:#010202;}
</style>
<g id="Groupe_100" transform="translate(-64)">
	<g id="Groupe_99" transform="translate(64)">
		<g id="Groupe_98">
			<path id="Tracé_217" class="st0" d="M25.2,7.3l-7.1-7.1C18,0.1,17.8,0,17.7,0H2.8C1.3,0,0,1.3,0,2.8v28.2c0,1.6,1.3,2.8,2.8,2.8
				h19.8c1.6,0,2.8-1.3,2.8-2.8V7.8C25.4,7.6,25.3,7.4,25.2,7.3z M18.4,2.4L23,7.1h-3.2c-0.8,0-1.4-0.6-1.4-1.4L18.4,2.4z M24,31.1
				c0,0.8-0.6,1.4-1.4,1.4H2.8c-0.8,0-1.4-0.6-1.4-1.4V2.8C1.4,2,2,1.4,2.8,1.4h14.1v4.2c0,1.6,1.3,2.8,2.8,2.8H24V31.1z"/>
			<path id="Tracé_218" class="st0" d="M16.3,20.7c-0.6-0.5-1.2-0.9-1.7-1.5c-0.5-0.5-1-1.1-1.4-1.6c0.5-1.2,0.8-2.4,0.9-3.6
				c0-2.3-0.8-2.8-2.1-2.8c-1,0-2.1,0.5-2.1,2.9c0.2,1.4,0.8,2.8,1.7,3.8c-0.3,0.9-0.6,1.8-1,2.9c-0.2,0.5-0.4,1-0.6,1.5
				c-0.2,0.1-0.3,0.1-0.5,0.2C9,23,8.5,23.2,8,23.4c-2.3,1.1-3.7,1.8-3.7,3.2c0,1,1.1,1.6,2.1,1.6c1.3,0,3.3-1.8,4.7-4.7
				c1.6-0.6,3.2-1,4.8-1.3c1.2,0.9,2.5,1.8,3.1,1.8c1.8,0,2.1-1,2.1-1.9c0-1.7-1.9-1.7-2.8-1.7C17.7,20.5,17,20.6,16.3,20.7z
				 M6.4,26.8c-0.3,0-0.5-0.1-0.7-0.2c0-0.5,1.5-1.2,2.9-1.9l0.3-0.1C7.8,26.1,6.8,26.8,6.4,26.8L6.4,26.8z M11.3,14.2
				c0-1.5,0.5-1.5,0.7-1.5c0.5,0,0.7,0,0.7,1.4c-0.1,0.8-0.3,1.5-0.6,2.2C11.7,15.7,11.4,15,11.3,14.2L11.3,14.2z M11.8,21.8
				c0-0.1,0.1-0.2,0.1-0.4c0.3-0.8,0.5-1.5,0.7-2.1c0.3,0.3,0.6,0.7,0.9,1c0.1,0.1,0.5,0.4,0.9,0.8C13.6,21.3,12.7,21.5,11.8,21.8
				L11.8,21.8z M19.8,22.1c0,0.3,0,0.4-0.7,0.5c-0.4-0.2-0.8-0.4-1.2-0.7c0.2,0,0.3,0,0.4,0C19.4,21.9,19.7,22,19.8,22.1L19.8,22.1z
				"/>
		</g>
	</g>
</g>
</svg>
