<?xml version="1.0" encoding="utf-8"?>
<!-- Generator: Adobe Illustrator 24.1.3, SVG Export Plug-In . SVG Version: 6.00 Build 0)  -->
<svg version="1.1" id="Calque_1" xmlns="http://www.w3.org/2000/svg" xmlns:xlink="http://www.w3.org/1999/xlink" x="0px" y="0px"
	 viewBox="0 0 16.9 14.1" style="enable-background:new 0 0 16.9 14.1;" xml:space="preserve">
<style type="text/css">
	.st0{fill:#192440;}
</style>
<path id="Tracé_246" class="st0" d="M16.6,1.6c-0.4,0.2-0.8,0.3-1.2,0.4c0.4-0.4,0.8-0.9,1-1.5l0,0c0-0.1,0-0.2-0.1-0.2
	c-0.1,0-0.1,0-0.2,0l0,0C15.6,0.6,15,0.9,14.4,1c0,0-0.1,0-0.1,0C14.2,1,14,1,14,0.9C13.3,0.3,12.4,0,11.5,0c-0.4,0-0.8,0.1-1.2,0.2
	C9.2,0.5,8.3,1.5,8,2.7C7.9,3.2,7.9,3.6,7.9,4.1c0,0,0,0.1,0,0.1c0,0-0.1,0-0.1,0h0C5.2,4,2.8,2.7,1.2,0.7l0,0
	C1.1,0.6,1,0.6,0.9,0.7c0,0,0,0,0,0.1l0,0C0,2.2,0.3,4,1.5,5.2C1.2,5.1,0.9,5,0.6,4.8l0,0c-0.1-0.1-0.2,0-0.3,0.1c0,0,0,0.1,0,0.1
	l0,0c0,1.4,0.8,2.8,2.1,3.4H2.4c-0.2,0-0.4,0-0.6-0.1l0,0c-0.1,0-0.2,0-0.2,0.2c0,0,0,0.1,0,0.1l0,0C2,9.9,3.1,10.8,4.5,11
	c-1.1,0.7-2.4,1.1-3.8,1.1H0.3c-0.1,0-0.2,0.1-0.3,0.2c0,0.1,0,0.3,0.1,0.3c1.5,0.9,3.3,1.4,5,1.4c1.5,0,3-0.3,4.3-0.9
	c1.2-0.6,2.3-1.4,3.1-2.4c0.8-0.9,1.5-2,1.9-3.2C15,6.4,15.2,5.3,15.2,4V4c0-0.2,0.1-0.4,0.2-0.5c0.6-0.5,1-1,1.5-1.6l0,0
	c0.1-0.1,0-0.2-0.1-0.3C16.8,1.6,16.7,1.6,16.6,1.6L16.6,1.6z"/>
</svg>
