<?xml version="1.0" encoding="utf-8"?>
<!-- Generator: Adobe Illustrator 24.1.3, SVG Export Plug-In . SVG Version: 6.00 Build 0)  -->
<svg version="1.1" id="Calque_1" xmlns="http://www.w3.org/2000/svg" xmlns:xlink="http://www.w3.org/1999/xlink" x="0px" y="0px"
	 viewBox="0 0 400.4 221.6" style="enable-background:new 0 0 400.4 221.6;" xml:space="preserve">
<style type="text/css">
	.st0{fill:#28A8A5;}
	.st1{enable-background:new    ;}
	.st2{fill:#FFFFFF;}
</style>
<polygon class="st0" points="301.9,0 1.9,0 97.6,111 0,222 304.7,221.3 400.4,111 "/>
<g class="st1">
	<path class="st2" d="M143.4,81.9c1.8,1.5,2.7,3.7,2.7,6.5c0,3-0.9,5.3-2.7,6.9s-4.3,2.5-7.5,2.5h-4.5v7h-6.6V79.6h11.1
		C139.1,79.6,141.6,80.4,143.4,81.9z M138.7,91.6c0.7-0.7,1.1-1.6,1.1-2.9c0-1.2-0.4-2.2-1.1-2.8c-0.7-0.7-1.8-1-3.1-1h-4.2v7.7h4.2
		C136.9,92.6,137.9,92.3,138.7,91.6z"/>
	<path class="st2" d="M167.5,87.1c1.3,1.3,1.9,3.2,1.9,5.4v12.3H163V94.4c0-1.1-0.3-2-0.9-2.6c-0.6-0.6-1.4-1-2.4-1
		c-1.2,0-2.1,0.4-2.8,1.2s-1,1.9-1,3.1v9.6h-6.4V78.1h6.4v10.4c0.7-1.1,1.6-2,2.7-2.6c1.1-0.6,2.3-0.9,3.8-0.9
		C164.5,85.1,166.2,85.8,167.5,87.1z"/>
	<path class="st2" d="M188.8,87c1.5,1.2,2.2,3,2.3,5.2v12.7h-6.3v-2.2c-1.3,1.7-3.3,2.5-5.9,2.5c-2.1,0-3.7-0.6-4.9-1.7
		s-1.8-2.6-1.8-4.4s0.6-3.3,1.9-4.3c1.3-1,3.1-1.6,5.5-1.6h5.1V93c0-0.9-0.3-1.7-1-2.2S182.2,90,181,90c-0.8,0-1.7,0.1-2.8,0.4
		c-1,0.3-2,0.6-3.1,1.2l-1.8-4.3c1.6-0.7,3.1-1.3,4.6-1.6c1.5-0.3,3-0.5,4.5-0.5C185.2,85.1,187.3,85.7,188.8,87z M183.4,100.1
		c0.7-0.5,1.2-1.1,1.4-1.8v-1.7H181c-1.8,0-2.7,0.7-2.7,2c0,0.7,0.2,1.2,0.7,1.6s1.1,0.6,1.9,0.6
		C181.8,100.8,182.6,100.5,183.4,100.1z"/>
	<path class="st2" d="M202.2,89.5c-0.6,0-1,0.1-1.3,0.3c-0.3,0.2-0.5,0.5-0.5,0.9s0.3,0.8,0.8,1c0.5,0.3,1.4,0.6,2.5,0.9
		c1.4,0.4,2.5,0.8,3.5,1.2c0.9,0.4,1.7,1,2.4,1.8s1,1.9,1,3.2c0,2-0.8,3.5-2.3,4.6s-3.5,1.7-6,1.7c-1.7,0-3.2-0.2-4.8-0.7
		c-1.5-0.5-2.9-1.2-4-2.1l2-4.1c1.1,0.8,2.3,1.4,3.5,1.8s2.4,0.6,3.4,0.6c0.6,0,1.1-0.1,1.5-0.3c0.4-0.2,0.6-0.5,0.6-0.9
		c0-0.5-0.3-0.9-0.8-1.1c-0.5-0.3-1.4-0.6-2.5-0.9c-1.4-0.4-2.5-0.8-3.4-1.2c-0.9-0.4-1.7-1-2.3-1.8c-0.7-0.8-1-1.8-1-3.1
		c0-2,0.7-3.5,2.2-4.6s3.4-1.7,5.8-1.7c1.4,0,2.8,0.2,4.2,0.6s2.7,0.9,3.9,1.7l-2.2,4.2C205.8,90.2,203.8,89.5,202.2,89.5z"/>
	<path class="st2" d="M229.8,88c1.7,1.9,2.6,4.4,2.6,7.7c0,0.5,0,0.9,0,1.2h-13.5c0.3,1.1,0.9,2,1.6,2.5c0.8,0.6,1.7,0.9,2.8,0.9
		c0.8,0,1.6-0.2,2.4-0.5c0.8-0.3,1.5-0.8,2.1-1.5l3.3,3.3c-1,1.1-2.2,2-3.7,2.6c-1.4,0.6-3,0.9-4.8,0.9c-2.1,0-3.9-0.4-5.5-1.2
		c-1.6-0.8-2.8-2-3.6-3.5s-1.2-3.2-1.2-5.2s0.4-3.7,1.3-5.3c0.8-1.5,2-2.7,3.6-3.5c1.5-0.8,3.3-1.2,5.3-1.2
		C225.7,85.2,228.1,86.1,229.8,88z M226.2,93.4c0-1.1-0.3-2-1-2.7s-1.5-1-2.6-1c-1,0-1.9,0.3-2.5,1s-1.1,1.6-1.4,2.7H226.2z"/>
	<path class="st2" d="M263.3,78.1v26.7h-6.4v-2.5c-0.7,0.9-1.5,1.6-2.5,2.1s-2.1,0.7-3.3,0.7c-1.8,0-3.4-0.4-4.8-1.3
		c-1.4-0.8-2.4-2-3.2-3.5S242,97,242,95s0.4-3.7,1.1-5.2c0.7-1.5,1.8-2.6,3.1-3.5c1.3-0.8,2.9-1.2,4.7-1.2c1.2,0,2.4,0.2,3.4,0.7
		s1.8,1.2,2.5,2.1v-9.8C256.8,78.1,263.3,78.1,263.3,78.1z M255.8,98.7c0.8-0.9,1.2-2.1,1.2-3.5c0-1.5-0.4-2.6-1.2-3.5
		s-1.8-1.3-3-1.3s-2.3,0.5-3,1.3c-0.8,0.9-1.2,2.1-1.2,3.5s0.4,2.6,1.2,3.5s1.8,1.3,3,1.3C254,100.1,255,99.6,255.8,98.7z"/>
	<path class="st2" d="M284.3,88c1.7,1.9,2.6,4.4,2.6,7.7c0,0.5,0,0.9,0,1.2h-13.5c0.3,1.1,0.9,2,1.6,2.5c0.8,0.6,1.7,0.9,2.8,0.9
		c0.8,0,1.6-0.2,2.4-0.5s1.5-0.8,2.1-1.5l3.3,3.3c-1,1.1-2.2,2-3.7,2.6c-1.4,0.6-3,0.9-4.8,0.9c-2.1,0-3.9-0.4-5.5-1.2
		c-1.6-0.8-2.8-2-3.6-3.5s-1.2-3.2-1.2-5.2s0.4-3.7,1.3-5.3c0.8-1.5,2-2.7,3.6-3.5c1.5-0.8,3.3-1.2,5.3-1.2
		C280.1,85.2,282.6,86.1,284.3,88z M280.6,93.4c0-1.1-0.3-2-1-2.7s-1.5-1-2.6-1c-1,0-1.9,0.3-2.5,1s-1.1,1.6-1.4,2.7H280.6z"/>
</g>
<g class="st1">
	<path class="st2" d="M133.5,126.4c-1.2,0-2.1,0.4-2.8,1.3s-1.1,2-1.1,3.4s0.4,2.6,1.1,3.4c0.7,0.9,1.7,1.3,2.8,1.3
		c1.8,0,3-0.7,3.8-2.2l4.7,2.7c-0.8,1.5-1.9,2.6-3.5,3.5c-1.5,0.8-3.3,1.2-5.4,1.2c-2,0-3.7-0.4-5.3-1.2c-1.5-0.8-2.7-2-3.5-3.5
		s-1.2-3.2-1.2-5.2s0.4-3.7,1.3-5.3c0.8-1.5,2-2.7,3.5-3.5s3.3-1.2,5.3-1.2c1.9,0,3.7,0.4,5.2,1.2c1.5,0.8,2.7,1.9,3.5,3.4l-4.6,2.7
		C136.4,127.1,135.2,126.4,133.5,126.4z"/>
	<path class="st2" d="M159.1,122.4c1.6,0.8,2.9,2,3.7,3.5c0.9,1.5,1.3,3.2,1.3,5.2s-0.4,3.7-1.3,5.2c-0.9,1.5-2.1,2.7-3.7,3.5
		c-1.6,0.8-3.5,1.2-5.6,1.2s-4-0.4-5.6-1.2s-2.9-2-3.7-3.5c-0.9-1.5-1.3-3.2-1.3-5.2s0.4-3.7,1.3-5.2c0.9-1.5,2.1-2.7,3.7-3.5
		s3.5-1.2,5.6-1.2C155.6,121.2,157.5,121.6,159.1,122.4z M150.5,127.7c-0.8,0.9-1.2,2.1-1.2,3.5c0,1.5,0.4,2.6,1.2,3.5
		s1.8,1.3,3,1.3c1.3,0,2.3-0.4,3.1-1.3c0.8-0.9,1.2-2.1,1.2-3.5s-0.4-2.6-1.2-3.5c-0.8-0.9-1.8-1.3-3-1.3
		C152.3,126.3,151.3,126.8,150.5,127.7z"/>
	<path class="st2" d="M185.4,123.1c1.3,1.3,1.9,3.2,1.9,5.4v12.3H181v-10.4c0-1.1-0.3-2-0.9-2.6c-0.6-0.6-1.4-1-2.4-1
		c-1.1,0-1.9,0.4-2.6,1s-1.1,1.6-1.2,2.7v10.3h-6.4v-19.5h6.4v3.2c0.7-1.1,1.6-2,2.7-2.6c1.1-0.6,2.3-0.9,3.8-0.9
		C182.4,121.1,184.2,121.8,185.4,123.1z"/>
	<path class="st2" d="M199.9,119.5c-0.4,0.4-0.6,0.9-0.6,1.5v1.3h4.3v4.2h-4.3v14.3h-6.4v-14.3h-2.6v-4.2h2.6v-1.8
		c0-2.1,0.7-3.7,2.1-4.9c1.4-1.2,3.1-1.8,5.3-1.8c1.4,0,2.8,0.3,4.2,0.8l-0.8,4.9c-1-0.3-1.7-0.5-2.2-0.5
		C200.8,119,200.3,119.1,199.9,119.5z"/>
	<path class="st2" d="M220.2,122.4c1.6,0.8,2.9,2,3.7,3.5c0.9,1.5,1.3,3.2,1.3,5.2s-0.4,3.7-1.3,5.2c-0.9,1.5-2.1,2.7-3.7,3.5
		c-1.6,0.8-3.5,1.2-5.6,1.2s-4-0.4-5.6-1.2s-2.9-2-3.7-3.5c-0.9-1.5-1.3-3.2-1.3-5.2s0.4-3.7,1.3-5.2c0.9-1.5,2.1-2.7,3.7-3.5
		s3.5-1.2,5.6-1.2C216.8,121.2,218.6,121.6,220.2,122.4z M211.6,127.7c-0.8,0.9-1.2,2.1-1.2,3.5c0,1.5,0.4,2.6,1.2,3.5
		s1.8,1.3,3,1.3c1.3,0,2.3-0.4,3.1-1.3c0.8-0.9,1.2-2.1,1.2-3.5s-0.4-2.6-1.2-3.5c-0.8-0.9-1.8-1.3-3-1.3
		C213.4,126.3,212.4,126.8,211.6,127.7z"/>
	<path class="st2" d="M237.6,122c1.1-0.6,2.3-0.9,3.7-0.9v5.9c-0.2,0-0.5,0-1,0c-1.5,0-2.7,0.4-3.7,1.1c-1,0.7-1.5,1.7-1.6,2.9v9.9
		h-6.4v-19.5h6.4v3.2C235.7,123.5,236.5,122.6,237.6,122z"/>
	<path class="st2" d="M275.1,123.1c1.3,1.3,1.9,3.2,1.9,5.4v12.3h-6.4v-10.4c0-1.1-0.3-2-0.9-2.6s-1.4-1-2.3-1c-1.1,0-2,0.4-2.7,1.2
		s-1,1.9-1,3.1v9.6h-6.4v-10.4c0-1.1-0.3-2-0.9-2.6s-1.4-1-2.3-1c-1.1,0-2,0.4-2.7,1.2s-1,1.9-1,3.1v9.6H244v-19.5h6.4v3.2
		c0.7-1.1,1.5-2,2.6-2.6s2.3-0.9,3.7-0.9c1.6,0,2.9,0.4,4.1,1.2c1.1,0.8,1.9,1.8,2.4,3.2c0.6-1.4,1.5-2.5,2.7-3.3
		c1.2-0.7,2.5-1.1,4.1-1.1C272.2,121.1,273.9,121.8,275.1,123.1z"/>
	<path class="st2" d="M287,113.4c0.6,0.6,1,1.5,1,2.5s-0.3,1.8-1,2.4c-0.6,0.6-1.4,1-2.4,1s-1.8-0.3-2.4-1c-0.6-0.6-1-1.5-1-2.4
		c0-1,0.3-1.8,1-2.5c0.6-0.6,1.4-1,2.4-1C285.5,112.4,286.3,112.7,287,113.4z M281.4,121.4h6.4v19.5h-6.4V121.4z"/>
	<path class="st2" d="M305.3,139.8c-0.7,0.4-1.5,0.7-2.5,1c-0.9,0.2-1.9,0.3-2.8,0.3c-1.9,0-3.5-0.6-4.7-1.7
		c-1.2-1.1-1.8-2.6-1.8-4.6v-8.4h-2.7v-4.2h2.7v-5.4h6.4v5.4h5v4.2h-5v7.3c0,1.4,0.6,2.1,1.7,2.1c0.7,0,1.5-0.2,2.5-0.6L305.3,139.8
		z"/>
	<path class="st2" d="M324.2,124c1.7,1.9,2.6,4.4,2.6,7.7c0,0.5,0,0.9,0,1.2h-13.5c0.3,1.1,0.9,2,1.6,2.5c0.8,0.6,1.7,0.9,2.8,0.9
		c0.8,0,1.6-0.2,2.4-0.5s1.5-0.8,2.1-1.5l3.3,3.3c-1,1.1-2.2,2-3.7,2.6c-1.4,0.6-3,0.9-4.8,0.9c-2.1,0-3.9-0.4-5.5-1.2
		s-2.8-2-3.6-3.5s-1.2-3.2-1.2-5.2s0.4-3.7,1.3-5.3c0.8-1.5,2-2.7,3.6-3.5c1.5-0.8,3.3-1.2,5.3-1.2C320,121.2,322.5,122.1,324.2,124
		z M320.5,129.4c0-1.1-0.3-2-1-2.7s-1.5-1-2.6-1c-1,0-1.9,0.3-2.5,1s-1.1,1.6-1.4,2.7H320.5z M317.8,113.1l5.3,2l-5.2,4.1l-4.4-0.4
		L317.8,113.1z"/>
</g>
</svg>
