<?xml version="1.0" encoding="utf-8"?>
<!-- Generator: Adobe Illustrator 24.1.3, SVG Export Plug-In . SVG Version: 6.00 Build 0)  -->
<svg version="1.1" id="Calque_1" xmlns="http://www.w3.org/2000/svg" xmlns:xlink="http://www.w3.org/1999/xlink" x="0px" y="0px"
	 viewBox="0 0 402.1 223.2" style="enable-background:new 0 0 402.1 223.2;" xml:space="preserve">
<style type="text/css">
	.st0{fill:#24A7A4;}
	.st1{enable-background:new    ;}
	.st2{fill:#FFFFFF;}
</style>
<polygon class="st0" points="301.4,0.7 301.1,0.4 0.5,0.4 0.5,222.6 303.8,222.6 399.6,112.2 "/>
<g class="st1">
	<path class="st2" d="M61.5,102c1.8,1.5,2.7,3.7,2.7,6.5c0,3-0.9,5.3-2.7,6.9c-1.8,1.6-4.3,2.5-7.5,2.5h-4.5v7h-6.6V99.7H54
		C57.2,99.7,59.7,100.4,61.5,102z M56.8,111.7c0.7-0.7,1.1-1.6,1.1-2.9c0-1.2-0.4-2.2-1.1-2.8c-0.7-0.7-1.8-1-3.1-1h-4.2v7.7h4.2
		C55,112.7,56,112.3,56.8,111.7z"/>
	<path class="st2" d="M85.6,107.2c1.3,1.3,1.9,3.2,1.9,5.4v12.3h-6.4v-10.4c0-1.1-0.3-2-0.9-2.6c-0.6-0.6-1.4-1-2.4-1
		c-1.2,0-2.1,0.4-2.8,1.2s-1,1.9-1,3.1v9.6h-6.4V98.2H74v10.4c0.7-1.1,1.6-2,2.7-2.6c1.1-0.6,2.3-0.9,3.8-0.9
		C82.6,105.2,84.3,105.9,85.6,107.2z"/>
	<path class="st2" d="M106.9,107c1.5,1.2,2.2,3,2.3,5.2v12.7h-6.3v-2.2c-1.3,1.7-3.3,2.5-5.9,2.5c-2.1,0-3.7-0.6-4.9-1.7
		s-1.8-2.6-1.8-4.4c0-1.8,0.6-3.3,1.9-4.3c1.3-1,3.1-1.6,5.5-1.6h5.1V113c0-0.9-0.3-1.7-1-2.2s-1.6-0.8-2.8-0.8
		c-0.8,0-1.7,0.1-2.8,0.4c-1,0.3-2,0.6-3.1,1.2l-1.8-4.3c1.6-0.7,3.1-1.3,4.6-1.6c1.5-0.3,3-0.5,4.5-0.5
		C103.3,105.2,105.4,105.8,106.9,107z M101.5,120.1c0.7-0.5,1.2-1.1,1.4-1.8v-1.7H99c-1.8,0-2.7,0.7-2.7,2c0,0.7,0.2,1.2,0.7,1.6
		c0.5,0.4,1.1,0.6,1.9,0.6C99.9,120.8,100.7,120.6,101.5,120.1z"/>
	<path class="st2" d="M120.3,109.6c-0.6,0-1,0.1-1.3,0.3c-0.3,0.2-0.5,0.5-0.5,0.9c0,0.4,0.3,0.8,0.8,1c0.5,0.3,1.4,0.6,2.5,0.9
		c1.4,0.4,2.5,0.8,3.5,1.2c0.9,0.4,1.7,1,2.4,1.8c0.7,0.8,1,1.9,1,3.2c0,2-0.8,3.5-2.3,4.6c-1.5,1.1-3.5,1.7-6,1.7
		c-1.7,0-3.2-0.2-4.8-0.7c-1.5-0.5-2.9-1.2-4-2.1l2-4.1c1.1,0.8,2.3,1.4,3.5,1.8s2.4,0.6,3.4,0.6c0.6,0,1.1-0.1,1.5-0.3
		c0.4-0.2,0.6-0.5,0.6-0.9c0-0.5-0.3-0.9-0.8-1.1c-0.5-0.3-1.4-0.6-2.5-0.9c-1.4-0.4-2.5-0.8-3.4-1.2c-0.9-0.4-1.7-1-2.3-1.8
		c-0.7-0.8-1-1.8-1-3.1c0-2,0.7-3.5,2.2-4.6c1.5-1.1,3.4-1.7,5.8-1.7c1.4,0,2.8,0.2,4.2,0.6c1.4,0.4,2.7,0.9,3.9,1.7l-2.2,4.2
		C123.9,110.3,121.9,109.6,120.3,109.6z"/>
	<path class="st2" d="M147.9,108c1.7,1.9,2.6,4.4,2.6,7.7c0,0.5,0,0.9,0,1.2h-13.5c0.3,1.1,0.9,2,1.6,2.5c0.8,0.6,1.7,0.9,2.8,0.9
		c0.8,0,1.6-0.2,2.4-0.5c0.8-0.3,1.5-0.8,2.1-1.5l3.3,3.3c-1,1.1-2.2,2-3.7,2.6c-1.4,0.6-3,0.9-4.8,0.9c-2.1,0-3.9-0.4-5.5-1.2
		c-1.6-0.8-2.8-2-3.6-3.5s-1.2-3.2-1.2-5.2c0-2,0.4-3.7,1.3-5.3c0.8-1.5,2-2.7,3.6-3.5c1.5-0.8,3.3-1.2,5.3-1.2
		C143.8,105.2,146.2,106.2,147.9,108z M144.3,113.5c0-1.1-0.3-2-1-2.7c-0.7-0.7-1.5-1-2.6-1c-1,0-1.9,0.3-2.5,1s-1.1,1.6-1.4,2.7
		H144.3z"/>
	<path class="st2" d="M167.3,97.4c0.6,0.6,1,1.5,1,2.5c0,1-0.3,1.8-1,2.4c-0.6,0.6-1.4,1-2.4,1c-1,0-1.8-0.3-2.4-1
		c-0.6-0.6-1-1.5-1-2.4c0-1,0.3-1.8,1-2.5c0.6-0.6,1.4-1,2.4-1C165.9,96.5,166.7,96.8,167.3,97.4z M161.8,105.4h6.4v19.5h-6.4V105.4
		z"/>
	<path class="st2" d="M191,107.2c1.3,1.3,1.9,3.2,1.9,5.4v12.3h-6.4v-10.4c0-1.1-0.3-2-0.9-2.6c-0.6-0.6-1.4-1-2.4-1
		c-1.1,0-1.9,0.4-2.6,1s-1.1,1.6-1.2,2.7v10.3H173v-19.5h6.4v3.2c0.7-1.1,1.6-2,2.7-2.6c1.1-0.6,2.3-0.9,3.8-0.9
		C188,105.2,189.7,105.9,191,107.2z"/>
	<path class="st2" d="M202.9,97.4c0.6,0.6,1,1.5,1,2.5c0,1-0.3,1.8-1,2.4c-0.6,0.6-1.4,1-2.4,1c-1,0-1.8-0.3-2.4-1
		c-0.6-0.6-1-1.5-1-2.4c0-1,0.3-1.8,1-2.5c0.6-0.6,1.4-1,2.4-1C201.4,96.5,202.2,96.8,202.9,97.4z M197.3,105.4h6.4v19.5h-6.4V105.4
		z"/>
	<path class="st2" d="M221.2,123.9c-0.7,0.4-1.5,0.7-2.5,1c-0.9,0.2-1.9,0.3-2.8,0.3c-1.9,0-3.5-0.6-4.7-1.7
		c-1.2-1.1-1.8-2.6-1.8-4.6v-8.4h-2.7v-4.2h2.7V101h6.4v5.4h5v4.2h-5v7.3c0,1.4,0.6,2.1,1.7,2.1c0.7,0,1.5-0.2,2.5-0.6L221.2,123.9z
		"/>
	<path class="st2" d="M229.9,97.4c0.6,0.6,1,1.5,1,2.5c0,1-0.3,1.8-1,2.4c-0.6,0.6-1.4,1-2.4,1c-1,0-1.8-0.3-2.4-1
		c-0.6-0.6-1-1.5-1-2.4c0-1,0.3-1.8,1-2.5c0.6-0.6,1.4-1,2.4-1C228.4,96.5,229.2,96.8,229.9,97.4z M224.3,105.4h6.4v19.5h-6.4V105.4
		z"/>
	<path class="st2" d="M250.6,107c1.5,1.2,2.2,3,2.3,5.2v12.7h-6.3v-2.2c-1.3,1.7-3.3,2.5-5.9,2.5c-2.1,0-3.7-0.6-4.9-1.7
		s-1.8-2.6-1.8-4.4c0-1.8,0.6-3.3,1.9-4.3c1.3-1,3.1-1.6,5.5-1.6h5.1V113c0-0.9-0.3-1.7-1-2.2s-1.6-0.8-2.8-0.8
		c-0.8,0-1.7,0.1-2.8,0.4c-1,0.3-2,0.6-3.1,1.2l-1.8-4.3c1.6-0.7,3.1-1.3,4.6-1.6c1.5-0.3,3-0.5,4.5-0.5
		C247,105.2,249.1,105.8,250.6,107z M245.2,120.1c0.7-0.5,1.2-1.1,1.4-1.8v-1.7h-3.8c-1.8,0-2.7,0.7-2.7,2c0,0.7,0.2,1.2,0.7,1.6
		c0.5,0.4,1.1,0.6,1.9,0.6C243.7,120.8,244.5,120.6,245.2,120.1z"/>
	<path class="st2" d="M257.4,98.2h6.4v26.7h-6.4V98.2z"/>
	<path class="st2" d="M284.7,108c1.7,1.9,2.6,4.4,2.6,7.7c0,0.5,0,0.9,0,1.2h-13.5c0.3,1.1,0.9,2,1.6,2.5c0.8,0.6,1.7,0.9,2.8,0.9
		c0.8,0,1.6-0.2,2.4-0.5c0.8-0.3,1.5-0.8,2.1-1.5l3.3,3.3c-1,1.1-2.2,2-3.7,2.6c-1.4,0.6-3,0.9-4.8,0.9c-2.1,0-3.9-0.4-5.5-1.2
		c-1.6-0.8-2.8-2-3.6-3.5s-1.2-3.2-1.2-5.2c0-2,0.4-3.7,1.3-5.3c0.8-1.5,2-2.7,3.6-3.5c1.5-0.8,3.3-1.2,5.3-1.2
		C280.6,105.2,283,106.2,284.7,108z M281.1,113.5c0-1.1-0.3-2-1-2.7c-0.7-0.7-1.5-1-2.6-1c-1,0-1.9,0.3-2.5,1s-1.1,1.6-1.4,2.7
		H281.1z"/>
</g>
</svg>
