<?xml version="1.0" encoding="utf-8"?>
<!-- Generator: Adobe Illustrator 24.1.3, SVG Export Plug-In . SVG Version: 6.00 Build 0)  -->
<svg version="1.1" id="Calque_1" xmlns="http://www.w3.org/2000/svg" xmlns:xlink="http://www.w3.org/1999/xlink" x="0px" y="0px"
	 viewBox="0 0 400.4 221.6" style="enable-background:new 0 0 400.4 221.6;" xml:space="preserve">
<style type="text/css">
	.st0{fill:#28A8A5;}
	.st1{enable-background:new    ;}
	.st2{fill:#FFFFFF;}
</style>
<polygon class="st0" points="301.9,0 1.9,0 97.6,111 0,222 304.7,221.3 400.4,111 "/>
<g class="st1">
	<path class="st2" d="M141.9,82.7c1.8,1.5,2.6,3.7,2.6,6.5c0,3-0.9,5.2-2.6,6.9c-1.8,1.6-4.2,2.4-7.4,2.4H130v6.9h-6.5v-25h11
		C137.7,80.4,140.2,81.2,141.9,82.7z M137.3,92.3c0.7-0.7,1.1-1.6,1.1-2.9c0-1.2-0.4-2.1-1.1-2.8c-0.7-0.7-1.8-1-3.1-1H130v7.7h4.1
		C135.5,93.3,136.6,93,137.3,92.3z"/>
	<path class="st2" d="M165.9,87.9c1.3,1.3,1.9,3.1,1.9,5.4v12.2h-6.4V95.1c0-1.1-0.3-2-0.9-2.6c-0.6-0.6-1.4-0.9-2.4-0.9
		c-1.2,0-2.1,0.4-2.8,1.2c-0.7,0.8-1,1.8-1,3.1v9.5H148V78.9h6.4v10.3c0.7-1.1,1.6-2,2.7-2.5c1.1-0.6,2.3-0.9,3.7-0.9
		C162.9,85.9,164.6,86.5,165.9,87.9z"/>
	<path class="st2" d="M187,87.7c1.5,1.2,2.2,2.9,2.3,5.2v12.6H183v-2.2c-1.3,1.6-3.2,2.5-5.8,2.5c-2,0-3.7-0.6-4.8-1.7
		s-1.8-2.6-1.8-4.4s0.6-3.3,1.9-4.3c1.3-1,3.1-1.5,5.5-1.6h5v-0.2c0-0.9-0.3-1.6-0.9-2.1c-0.6-0.5-1.5-0.8-2.7-0.8
		c-0.8,0-1.7,0.1-2.7,0.4s-2,0.6-3.1,1.1l-1.8-4.3c1.6-0.7,3.1-1.2,4.5-1.6c1.4-0.3,2.9-0.5,4.5-0.5C183.5,85.9,185.5,86.5,187,87.7
		z M181.6,100.7c0.7-0.5,1.2-1.1,1.4-1.8v-1.7h-3.8c-1.8,0-2.7,0.7-2.7,2c0,0.7,0.2,1.2,0.7,1.6s1.1,0.6,1.9,0.6
		C180.1,101.4,180.9,101.2,181.6,100.7z"/>
	<path class="st2" d="M200.3,90.3c-0.5,0-1,0.1-1.3,0.3c-0.3,0.2-0.5,0.5-0.5,0.9s0.3,0.8,0.8,1c0.5,0.3,1.4,0.5,2.5,0.9
		c1.4,0.4,2.5,0.8,3.4,1.2c0.9,0.4,1.7,1,2.4,1.8s1,1.8,1,3.1c0,2-0.8,3.5-2.3,4.6s-3.5,1.7-5.9,1.7c-1.6,0-3.2-0.2-4.7-0.7
		s-2.8-1.1-4-2.1l2-4.1c1.1,0.8,2.2,1.4,3.4,1.8s2.3,0.6,3.4,0.6c0.6,0,1.1-0.1,1.5-0.3c0.4-0.2,0.6-0.5,0.6-0.9
		c0-0.5-0.3-0.8-0.8-1.1s-1.4-0.5-2.5-0.9c-1.4-0.4-2.5-0.8-3.4-1.2s-1.6-1-2.3-1.8s-1-1.8-1-3.1c0-2,0.7-3.5,2.2-4.6
		s3.4-1.7,5.7-1.7c1.4,0,2.8,0.2,4.2,0.6s2.7,0.9,3.9,1.7l-2.1,4.1C203.9,90.9,201.9,90.3,200.3,90.3z"/>
	<path class="st2" d="M227.8,88.7c1.7,1.9,2.5,4.4,2.5,7.6c0,0.5,0,0.9,0,1.1h-13.4c0.3,1.1,0.8,1.9,1.6,2.5s1.7,0.9,2.8,0.9
		c0.8,0,1.6-0.2,2.4-0.5c0.8-0.3,1.5-0.8,2.1-1.5l3.3,3.3c-1,1.1-2.2,2-3.6,2.6c-1.4,0.6-3,0.9-4.8,0.9c-2.1,0-3.9-0.4-5.4-1.2
		c-1.5-0.8-2.7-2-3.6-3.4c-0.8-1.5-1.2-3.2-1.2-5.1c0-2,0.4-3.7,1.3-5.2c0.8-1.5,2-2.7,3.5-3.5s3.3-1.2,5.3-1.2
		C223.7,85.9,226.1,86.8,227.8,88.7z M224.1,94.1c0-1.1-0.3-2-1-2.7s-1.5-1-2.6-1c-1,0-1.8,0.3-2.5,1s-1.1,1.6-1.3,2.7H224.1z"/>
	<path class="st2" d="M261,78.9v26.5h-6.4V103c-0.7,0.9-1.5,1.6-2.4,2.1c-1,0.5-2.1,0.7-3.3,0.7c-1.8,0-3.4-0.4-4.7-1.3
		c-1.4-0.8-2.4-2-3.2-3.5s-1.1-3.3-1.1-5.2c0-2,0.4-3.7,1.1-5.1c0.7-1.5,1.8-2.6,3.1-3.4s2.9-1.2,4.6-1.2c1.2,0,2.4,0.2,3.3,0.7
		c1,0.5,1.8,1.2,2.5,2v-9.7h6.5V78.9z M253.5,99.4c0.8-0.9,1.1-2.1,1.1-3.5c0-1.5-0.4-2.6-1.1-3.5c-0.8-0.9-1.8-1.3-3-1.3
		s-2.2,0.4-3,1.3s-1.2,2.1-1.2,3.5s0.4,2.6,1.2,3.5s1.8,1.3,3,1.3C251.8,100.7,252.8,100.3,253.5,99.4z"/>
	<path class="st2" d="M281.8,88.7c1.7,1.9,2.5,4.4,2.5,7.6c0,0.5,0,0.9,0,1.1h-13.4c0.3,1.1,0.8,1.9,1.6,2.5
		c0.8,0.6,1.7,0.9,2.8,0.9c0.8,0,1.6-0.2,2.4-0.5s1.5-0.8,2.1-1.5l3.3,3.3c-1,1.1-2.2,2-3.6,2.6s-3,0.9-4.8,0.9
		c-2.1,0-3.9-0.4-5.4-1.2c-1.5-0.8-2.7-2-3.6-3.4c-0.8-1.5-1.2-3.2-1.2-5.1c0-2,0.4-3.7,1.3-5.2c0.8-1.5,2-2.7,3.5-3.5
		s3.3-1.2,5.3-1.2C277.7,85.9,280.1,86.8,281.8,88.7z M278.2,94.1c0-1.1-0.3-2-1-2.7s-1.5-1-2.6-1c-1,0-1.8,0.3-2.5,1
		s-1.1,1.6-1.3,2.7H278.2z"/>
</g>
<g class="st1">
	<path class="st2" d="M132.2,126.9c-1.1,0-2.1,0.4-2.8,1.3s-1.1,2-1.1,3.4s0.4,2.5,1.1,3.4s1.6,1.3,2.8,1.3c1.8,0,3-0.7,3.8-2.2
		l4.7,2.7c-0.8,1.5-1.9,2.6-3.4,3.4c-1.5,0.8-3.3,1.2-5.4,1.2c-2,0-3.7-0.4-5.2-1.2s-2.7-2-3.5-3.4c-0.8-1.5-1.2-3.2-1.2-5.1
		c0-2,0.4-3.7,1.3-5.2c0.8-1.5,2-2.7,3.5-3.5s3.3-1.2,5.2-1.2s3.6,0.4,5.1,1.2c1.5,0.8,2.7,1.9,3.5,3.4l-4.6,2.7
		C135.1,127.6,133.8,126.9,132.2,126.9z"/>
	<path class="st2" d="M157.6,122.9c1.6,0.8,2.8,2,3.7,3.5s1.3,3.2,1.3,5.2s-0.4,3.7-1.3,5.2c-0.9,1.5-2.1,2.6-3.7,3.5
		c-1.6,0.8-3.4,1.2-5.5,1.2s-3.9-0.4-5.5-1.2s-2.8-2-3.7-3.5s-1.3-3.2-1.3-5.2s0.4-3.7,1.3-5.2c0.9-1.5,2.1-2.6,3.7-3.5
		c1.6-0.8,3.4-1.2,5.5-1.2C154.1,121.6,156,122.1,157.6,122.9z M149,128.1c-0.8,0.9-1.1,2-1.1,3.5s0.4,2.6,1.1,3.5
		c0.8,0.9,1.8,1.3,3,1.3c1.3,0,2.3-0.4,3-1.3c0.8-0.9,1.1-2,1.1-3.5c0-1.4-0.4-2.6-1.2-3.5c-0.8-0.9-1.8-1.3-3-1.3
		C150.8,126.8,149.8,127.2,149,128.1z"/>
	<path class="st2" d="M183.7,123.6c1.3,1.3,1.9,3.1,1.9,5.4v12.2h-6.3v-10.4c0-1.1-0.3-2-0.9-2.6s-1.4-0.9-2.4-0.9s-1.9,0.4-2.6,1
		c-0.7,0.7-1.1,1.5-1.2,2.6v10.2h-6.4v-19.3h6.4v3.1c0.7-1.1,1.6-2,2.7-2.5c1.1-0.6,2.3-0.9,3.7-0.9
		C180.7,121.6,182.4,122.3,183.7,123.6z"/>
	<path class="st2" d="M198.6,126.9c-1.1,0-2.1,0.4-2.8,1.3s-1.1,2-1.1,3.4s0.4,2.5,1.1,3.4s1.6,1.3,2.8,1.3c1.8,0,3-0.7,3.8-2.2
		l4.7,2.7c-0.8,1.5-1.9,2.6-3.4,3.4c-1.5,0.8-3.3,1.2-5.4,1.2c-2,0-3.7-0.4-5.2-1.2s-2.7-2-3.5-3.4c-0.8-1.5-1.2-3.2-1.2-5.1
		c0-2,0.4-3.7,1.3-5.2c0.8-1.5,2-2.7,3.5-3.5s3.3-1.2,5.2-1.2s3.6,0.4,5.1,1.2c1.5,0.8,2.7,1.9,3.5,3.4l-4.6,2.7
		C201.5,127.6,200.2,126.9,198.6,126.9z"/>
	<path class="st2" d="M225.2,124.4c1.7,1.9,2.5,4.4,2.5,7.6c0,0.5,0,0.9,0,1.1h-13.4c0.3,1.1,0.8,1.9,1.6,2.5s1.7,0.9,2.8,0.9
		c0.8,0,1.6-0.2,2.4-0.5c0.8-0.3,1.5-0.8,2.1-1.5l3.3,3.3c-1,1.1-2.2,2-3.6,2.6c-1.4,0.6-3,0.9-4.8,0.9c-2.1,0-3.9-0.4-5.4-1.2
		s-2.7-2-3.6-3.4c-0.8-1.5-1.2-3.2-1.2-5.1c0-2,0.4-3.7,1.3-5.2c0.8-1.5,2-2.7,3.5-3.5s3.3-1.2,5.3-1.2
		C221.1,121.6,223.6,122.6,225.2,124.4z M221.6,129.8c0-1.1-0.3-2-1-2.7s-1.5-1-2.6-1c-1,0-1.8,0.3-2.5,1s-1.1,1.6-1.3,2.7H221.6z"
		/>
	<path class="st2" d="M248,122.9c1.4,0.8,2.4,2,3.2,3.5s1.1,3.3,1.1,5.2c0,2-0.4,3.7-1.1,5.1c-0.7,1.5-1.8,2.6-3.1,3.4
		c-1.3,0.8-2.9,1.2-4.7,1.2c-1.2,0-2.3-0.2-3.3-0.7s-1.8-1.1-2.5-2v9.4h-6.4v-26.3h6.4v2.5c1.4-1.8,3.3-2.7,5.7-2.7
		C245,121.6,246.6,122.1,248,122.9z M244.7,134.9c0.8-0.9,1.2-2,1.2-3.5c0-1.4-0.4-2.6-1.2-3.5c-0.8-0.9-1.8-1.3-3-1.3
		s-2.2,0.4-3,1.3c-0.8,0.9-1.1,2.1-1.1,3.5s0.4,2.6,1.1,3.5c0.8,0.9,1.8,1.3,3,1.3C242.9,136.3,243.9,135.8,244.7,134.9z"/>
	<path class="st2" d="M268.1,140.2c-0.7,0.4-1.5,0.7-2.5,0.9s-1.9,0.3-2.8,0.3c-1.9,0-3.4-0.5-4.6-1.6s-1.8-2.6-1.8-4.5V127h-2.7
		v-4.2h2.7v-5.4h6.3v5.4h5v4.2h-5v7.3c0,1.4,0.6,2,1.7,2c0.7,0,1.5-0.2,2.5-0.6L268.1,140.2z"/>
	<path class="st2" d="M276.7,113.9c0.6,0.6,0.9,1.4,0.9,2.4s-0.3,1.8-0.9,2.4s-1.4,1-2.4,1s-1.8-0.3-2.4-1c-0.6-0.6-0.9-1.5-0.9-2.4
		c0-1,0.3-1.8,0.9-2.4s1.4-0.9,2.4-0.9S276.1,113.3,276.7,113.9z M271.2,121.9h6.3v19.3h-6.3V121.9z"/>
	<path class="st2" d="M296.9,122.9c1.6,0.8,2.8,2,3.7,3.5c0.9,1.5,1.3,3.2,1.3,5.2s-0.4,3.7-1.3,5.2s-2.1,2.6-3.7,3.5
		c-1.6,0.8-3.4,1.2-5.5,1.2s-3.9-0.4-5.5-1.2s-2.8-2-3.7-3.5c-0.9-1.5-1.3-3.2-1.3-5.2s0.4-3.7,1.3-5.2s2.1-2.6,3.7-3.5
		c1.6-0.8,3.4-1.2,5.5-1.2C293.4,121.6,295.3,122.1,296.9,122.9z M288.3,128.1c-0.8,0.9-1.1,2-1.1,3.5s0.4,2.6,1.1,3.5
		c0.8,0.9,1.8,1.3,3,1.3c1.3,0,2.3-0.4,3-1.3c0.8-0.9,1.1-2,1.1-3.5c0-1.4-0.4-2.6-1.2-3.5c-0.8-0.9-1.8-1.3-3-1.3
		C290.1,126.8,289.1,127.2,288.3,128.1z"/>
	<path class="st2" d="M323,123.6c1.3,1.3,1.9,3.1,1.9,5.4v12.2h-6.3v-10.4c0-1.1-0.3-2-0.9-2.6s-1.4-0.9-2.4-0.9s-1.9,0.4-2.6,1
		c-0.7,0.7-1.1,1.5-1.2,2.6v10.2h-6.4v-19.3h6.4v3.1c0.7-1.1,1.6-2,2.7-2.5c1.1-0.6,2.3-0.9,3.7-0.9
		C320,121.6,321.7,122.3,323,123.6z"/>
</g>
</svg>
