<?xml version="1.0" encoding="utf-8"?>
<!-- Generator: Adobe Illustrator 24.1.3, SVG Export Plug-In . SVG Version: 6.00 Build 0)  -->
<svg version="1.1" id="Calque_1" xmlns="http://www.w3.org/2000/svg" xmlns:xlink="http://www.w3.org/1999/xlink" x="0px" y="0px"
	 viewBox="0 0 400.4 221.6" style="enable-background:new 0 0 400.4 221.6;" xml:space="preserve">
<style type="text/css">
	.st0{fill:#28A8A6;}
	.st1{fill:#28A8A5;}
	.st2{enable-background:new    ;}
	.st3{fill:#FFFFFF;}
</style>
<polygon class="st0" points="2.2,221 304.2,220.3 399,111 301.4,1 4,1 98.9,111 "/>
<g>
	<path id="Tracé_240_1_" class="st1" d="M2.2,221l96.7-110L4,1h297.4L399,111l-94.8,109.3L2.2,221z"/>
	<path class="st1" d="M0,221.6L97.6,111L1.9,0h300l98.5,111l-96,110.6H0z M6.2,2l94,109L4.4,220l299.3-0.7l94-108.3L301,2H6.2z"/>
</g>
<g class="st2">
	<path class="st3" d="M143.2,81.9c1.8,1.5,2.7,3.7,2.7,6.5c0,3-0.9,5.3-2.7,6.9s-4.3,2.5-7.5,2.5h-4.5v7h-6.6V79.6h11.1
		C138.9,79.6,141.4,80.4,143.2,81.9z M138.5,91.6c0.7-0.7,1.1-1.6,1.1-2.9c0-1.2-0.4-2.2-1.1-2.8c-0.7-0.7-1.8-1-3.1-1h-4.2v7.7h4.2
		C136.8,92.6,137.8,92.3,138.5,91.6z"/>
	<path class="st3" d="M167.3,87.1c1.3,1.3,1.9,3.2,1.9,5.4v12.3h-6.4V94.4c0-1.1-0.3-2-0.9-2.6c-0.6-0.6-1.4-1-2.4-1
		c-1.2,0-2.1,0.4-2.8,1.2s-1,1.9-1,3.1v9.6h-6.4V78.1h6.4v10.4c0.7-1.1,1.6-2,2.7-2.6c1.1-0.6,2.3-0.9,3.8-0.9
		C164.3,85.1,166,85.8,167.3,87.1z"/>
	<path class="st3" d="M188.6,87c1.5,1.2,2.2,3,2.3,5.2v12.7h-6.3v-2.2c-1.3,1.7-3.3,2.5-5.9,2.5c-2.1,0-3.7-0.6-4.9-1.7
		s-1.8-2.6-1.8-4.4s0.6-3.3,1.9-4.3c1.3-1,3.1-1.6,5.5-1.6h5.1V93c0-0.9-0.3-1.7-1-2.2s-1.6-0.8-2.8-0.8c-0.8,0-1.7,0.1-2.8,0.4
		c-1,0.3-2,0.6-3.1,1.2l-1.8-4.3c1.6-0.7,3.1-1.3,4.6-1.6c1.5-0.3,3-0.5,4.5-0.5C185,85.1,187.1,85.7,188.6,87z M183.2,100.1
		c0.7-0.5,1.2-1.1,1.4-1.8v-1.7h-3.8c-1.8,0-2.7,0.7-2.7,2c0,0.7,0.2,1.2,0.7,1.6s1.1,0.6,1.9,0.6
		C181.7,100.8,182.5,100.5,183.2,100.1z"/>
	<path class="st3" d="M202,89.5c-0.6,0-1,0.1-1.3,0.3c-0.3,0.2-0.5,0.5-0.5,0.9s0.3,0.8,0.8,1c0.5,0.3,1.4,0.6,2.5,0.9
		c1.4,0.4,2.5,0.8,3.5,1.2c0.9,0.4,1.7,1,2.4,1.8s1,1.9,1,3.2c0,2-0.8,3.5-2.3,4.6s-3.5,1.7-6,1.7c-1.7,0-3.2-0.2-4.8-0.7
		c-1.5-0.5-2.9-1.2-4-2.1l2-4.1c1.1,0.8,2.3,1.4,3.5,1.8s2.4,0.6,3.4,0.6c0.6,0,1.1-0.1,1.5-0.3c0.4-0.2,0.6-0.5,0.6-0.9
		c0-0.5-0.3-0.9-0.8-1.1c-0.5-0.3-1.4-0.6-2.5-0.9c-1.4-0.4-2.5-0.8-3.4-1.2c-0.9-0.4-1.7-1-2.3-1.8c-0.7-0.8-1-1.8-1-3.1
		c0-2,0.7-3.5,2.2-4.6s3.4-1.7,5.8-1.7c1.4,0,2.8,0.2,4.2,0.6s2.7,0.9,3.9,1.7l-2.2,4.2C205.7,90.2,203.6,89.5,202,89.5z"/>
	<path class="st3" d="M229.7,88c1.7,1.9,2.6,4.4,2.6,7.7c0,0.5,0,0.9,0,1.2h-13.5c0.3,1.1,0.9,2,1.6,2.5c0.8,0.6,1.7,0.9,2.8,0.9
		c0.8,0,1.6-0.2,2.4-0.5c0.8-0.3,1.5-0.8,2.1-1.5l3.3,3.3c-1,1.1-2.2,2-3.7,2.6c-1.4,0.6-3,0.9-4.8,0.9c-2.1,0-3.9-0.4-5.5-1.2
		c-1.6-0.8-2.8-2-3.6-3.5s-1.2-3.2-1.2-5.2s0.4-3.7,1.3-5.3c0.8-1.5,2-2.7,3.6-3.5c1.5-0.8,3.3-1.2,5.3-1.2
		C225.6,85.2,228,86.1,229.7,88z M226,93.4c0-1.1-0.3-2-1-2.7s-1.5-1-2.6-1c-1,0-1.9,0.3-2.5,1s-1.1,1.6-1.4,2.7H226z"/>
	<path class="st3" d="M263.2,78.1v26.7h-6.4v-2.5c-0.7,0.9-1.5,1.6-2.5,2.1s-2.1,0.7-3.3,0.7c-1.8,0-3.4-0.4-4.8-1.3
		c-1.4-0.8-2.4-2-3.2-3.5s-1.1-3.3-1.1-5.3s0.4-3.7,1.1-5.2c0.7-1.5,1.8-2.6,3.1-3.5c1.3-0.8,2.9-1.2,4.7-1.2c1.2,0,2.4,0.2,3.4,0.7
		s1.8,1.2,2.5,2.1v-9.8C256.7,78.1,263.2,78.1,263.2,78.1z M255.6,98.7c0.8-0.9,1.2-2.1,1.2-3.5c0-1.5-0.4-2.6-1.2-3.5
		s-1.8-1.3-3-1.3s-2.3,0.5-3,1.3c-0.8,0.9-1.2,2.1-1.2,3.5s0.4,2.6,1.2,3.5s1.8,1.3,3,1.3C253.8,100.1,254.8,99.6,255.6,98.7z"/>
	<path class="st3" d="M284.1,88c1.7,1.9,2.6,4.4,2.6,7.7c0,0.5,0,0.9,0,1.2h-13.5c0.3,1.1,0.9,2,1.6,2.5c0.8,0.6,1.7,0.9,2.8,0.9
		c0.8,0,1.6-0.2,2.4-0.5s1.5-0.8,2.1-1.5l3.3,3.3c-1,1.1-2.2,2-3.7,2.6c-1.4,0.6-3,0.9-4.8,0.9c-2.1,0-3.9-0.4-5.5-1.2
		c-1.6-0.8-2.8-2-3.6-3.5s-1.2-3.2-1.2-5.2s0.4-3.7,1.3-5.3c0.8-1.5,2-2.7,3.6-3.5c1.5-0.8,3.3-1.2,5.3-1.2
		C280,85.2,282.4,86.1,284.1,88z M280.5,93.4c0-1.1-0.3-2-1-2.7s-1.5-1-2.6-1c-1,0-1.9,0.3-2.5,1s-1.1,1.6-1.4,2.7H280.5z"/>
</g>
<g class="st2">
	<path class="st3" d="M133.7,122c1.1-0.6,2.3-0.9,3.7-0.9v5.9c-0.2,0-0.5,0-1,0c-1.5,0-2.7,0.4-3.7,1.1c-1,0.7-1.5,1.7-1.6,2.9v9.9
		h-6.4v-19.5h6.4v3.2C131.7,123.5,132.6,122.6,133.7,122z"/>
	<path class="st3" d="M156,124c1.7,1.9,2.6,4.4,2.6,7.7c0,0.5,0,0.9,0,1.2H145c0.3,1.1,0.9,2,1.6,2.5c0.8,0.6,1.7,0.9,2.8,0.9
		c0.8,0,1.6-0.2,2.4-0.5c0.8-0.3,1.5-0.8,2.1-1.5l3.3,3.3c-1,1.1-2.2,2-3.7,2.6c-1.4,0.6-3,0.9-4.8,0.9c-2.1,0-3.9-0.4-5.5-1.2
		s-2.8-2-3.6-3.5s-1.2-3.2-1.2-5.2s0.4-3.7,1.3-5.3c0.8-1.5,2-2.7,3.6-3.5c1.5-0.8,3.3-1.2,5.3-1.2C151.9,121.2,154.3,122.1,156,124
		z M152.3,129.4c0-1.1-0.3-2-1-2.7s-1.5-1-2.6-1c-1,0-1.9,0.3-2.5,1s-1.1,1.6-1.4,2.7H152.3z M149.6,113.1l5.3,2l-5.2,4.1l-4.4-0.4
		L149.6,113.1z"/>
	<path class="st3" d="M176.9,123c1.5,1.2,2.2,3,2.3,5.2v12.7h-6.3v-2.2c-1.3,1.7-3.3,2.5-5.9,2.5c-2.1,0-3.7-0.6-4.9-1.7
		s-1.8-2.6-1.8-4.4c0-1.8,0.6-3.3,1.9-4.3c1.3-1,3.1-1.6,5.5-1.6h5.1V129c0-0.9-0.3-1.7-1-2.2s-1.6-0.8-2.8-0.8
		c-0.8,0-1.7,0.1-2.8,0.4c-1,0.3-2,0.6-3.1,1.2l-1.8-4.3c1.6-0.7,3.1-1.3,4.6-1.6c1.5-0.3,3-0.5,4.5-0.5
		C173.3,121.1,175.4,121.7,176.9,123z M171.5,136.1c0.7-0.5,1.2-1.1,1.4-1.8v-1.7H169c-1.8,0-2.7,0.7-2.7,2c0,0.7,0.2,1.2,0.7,1.6
		c0.5,0.4,1.1,0.6,1.9,0.6C169.9,136.8,170.8,136.5,171.5,136.1z"/>
	<path class="st3" d="M183.6,114.1h6.4v26.7h-6.4V114.1z"/>
	<path class="st3" d="M200.7,113.4c0.6,0.6,1,1.5,1,2.5s-0.3,1.8-1,2.4c-0.6,0.6-1.4,1-2.4,1s-1.8-0.3-2.4-1c-0.6-0.6-1-1.5-1-2.4
		c0-1,0.3-1.8,1-2.5c0.6-0.6,1.4-1,2.4-1C199.2,112.4,200.1,112.7,200.7,113.4z M195.1,121.4h6.4v19.5h-6.4V121.4z"/>
	<path class="st3" d="M213.2,125.5c-0.6,0-1,0.1-1.3,0.3c-0.3,0.2-0.5,0.5-0.5,0.9s0.3,0.8,0.8,1c0.5,0.3,1.4,0.6,2.5,0.9
		c1.4,0.4,2.5,0.8,3.5,1.2c0.9,0.4,1.7,1,2.4,1.8s1,1.9,1,3.2c0,2-0.8,3.5-2.3,4.6s-3.5,1.7-6,1.7c-1.7,0-3.2-0.2-4.8-0.7
		c-1.5-0.5-2.9-1.2-4-2.1l2-4.1c1.1,0.8,2.3,1.4,3.5,1.8s2.4,0.6,3.4,0.6c0.6,0,1.1-0.1,1.5-0.3s0.6-0.5,0.6-0.9
		c0-0.5-0.3-0.9-0.8-1.1c-0.5-0.3-1.4-0.6-2.5-0.9c-1.4-0.4-2.5-0.8-3.4-1.2s-1.7-1-2.3-1.8c-0.7-0.8-1-1.8-1-3.1
		c0-2,0.7-3.5,2.2-4.6s3.4-1.7,5.8-1.7c1.4,0,2.8,0.2,4.2,0.6s2.7,0.9,3.9,1.7l-2.2,4.2C216.9,126.2,214.8,125.5,213.2,125.5z"/>
	<path class="st3" d="M240.1,123c1.5,1.2,2.2,3,2.3,5.2v12.7H236v-2.2c-1.3,1.7-3.3,2.5-5.9,2.5c-2.1,0-3.7-0.6-4.9-1.7
		s-1.8-2.6-1.8-4.4c0-1.8,0.6-3.3,1.9-4.3c1.3-1,3.1-1.6,5.5-1.6h5.1V129c0-0.9-0.3-1.7-1-2.2s-1.6-0.8-2.8-0.8
		c-0.8,0-1.7,0.1-2.8,0.4c-1,0.3-2,0.6-3.1,1.2l-1.8-4.3c1.6-0.7,3.1-1.3,4.6-1.6c1.5-0.3,3-0.5,4.5-0.5
		C236.5,121.1,238.6,121.7,240.1,123z M234.7,136.1c0.7-0.5,1.2-1.1,1.4-1.8v-1.7h-3.8c-1.8,0-2.7,0.7-2.7,2c0,0.7,0.2,1.2,0.7,1.6
		c0.5,0.4,1.1,0.6,1.9,0.6C233.1,136.8,233.9,136.5,234.7,136.1z"/>
	<path class="st3" d="M259.3,139.8c-0.7,0.4-1.5,0.7-2.5,1c-0.9,0.2-1.9,0.3-2.8,0.3c-1.9,0-3.5-0.6-4.7-1.7
		c-1.2-1.1-1.8-2.6-1.8-4.6v-8.4h-2.7v-4.2h2.7v-5.4h6.4v5.4h5v4.2h-5v7.3c0,1.4,0.6,2.1,1.7,2.1c0.7,0,1.5-0.2,2.5-0.6L259.3,139.8
		z"/>
	<path class="st3" d="M267.9,113.4c0.6,0.6,1,1.5,1,2.5s-0.3,1.8-1,2.4c-0.6,0.6-1.4,1-2.4,1s-1.8-0.3-2.4-1c-0.6-0.6-1-1.5-1-2.4
		c0-1,0.3-1.8,1-2.5c0.6-0.6,1.4-1,2.4-1S267.3,112.7,267.9,113.4z M262.4,121.4h6.4v19.5h-6.4V121.4z"/>
	<path class="st3" d="M288.3,122.4c1.6,0.8,2.9,2,3.7,3.5c0.9,1.5,1.3,3.2,1.3,5.2s-0.4,3.7-1.3,5.2s-2.1,2.7-3.7,3.5
		s-3.5,1.2-5.6,1.2s-4-0.4-5.6-1.2s-2.9-2-3.7-3.5c-0.9-1.5-1.3-3.2-1.3-5.2s0.4-3.7,1.3-5.2s2.1-2.7,3.7-3.5s3.5-1.2,5.6-1.2
		C284.8,121.2,286.7,121.6,288.3,122.4z M279.7,127.7c-0.8,0.9-1.2,2.1-1.2,3.5c0,1.5,0.4,2.6,1.2,3.5c0.8,0.9,1.8,1.3,3,1.3
		c1.3,0,2.3-0.4,3.1-1.3c0.8-0.9,1.2-2.1,1.2-3.5s-0.4-2.6-1.2-3.5c-0.8-0.9-1.8-1.3-3-1.3C281.4,126.3,280.4,126.8,279.7,127.7z"/>
	<path class="st3" d="M314.6,123.1c1.3,1.3,1.9,3.2,1.9,5.4v12.3h-6.4v-10.4c0-1.1-0.3-2-0.9-2.6s-1.4-1-2.4-1c-1.1,0-1.9,0.4-2.6,1
		s-1.1,1.6-1.2,2.7v10.3h-6.4v-19.5h6.4v3.2c0.7-1.1,1.6-2,2.7-2.6s2.3-0.9,3.8-0.9C311.6,121.1,313.3,121.8,314.6,123.1z"/>
</g>
</svg>
