<?xml version="1.0" encoding="utf-8"?>
<!-- Generator: Adobe Illustrator 24.1.3, SVG Export Plug-In . SVG Version: 6.00 Build 0)  -->
<svg version="1.1" id="Calque_1" xmlns="http://www.w3.org/2000/svg" xmlns:xlink="http://www.w3.org/1999/xlink" x="0px" y="0px"
	 viewBox="0 0 41 41" style="enable-background:new 0 0 41 41;" xml:space="preserve">
<style type="text/css">
	.st0{fill:#24A8A5;}
	.st1{fill:#FFFFFF;}
</style>
<circle id="Ellipse_8" class="st0" cx="20.5" cy="20.5" r="20.5"/>
<g id="Groupe_73" transform="translate(9.695 10.101)">
	<g id="Groupe_72" transform="translate(0 0)">
		<path id="Tracé_204" class="st1" d="M15.7,14.8c-0.8,0-1.5,0.3-2.1,0.8l-7.5-4.4c0.1-0.5,0.1-1,0-1.5l7.4-4.3
			c1.3,1.2,3.3,1.1,4.4-0.2C19.2,4,19.1,2,17.9,0.8S14.6-0.3,13.4,1c-0.5,0.6-0.8,1.3-0.8,2.1c0,0.2,0,0.5,0.1,0.7L5.3,8.2
			C4,7,2,7.1,0.8,8.3s-1.1,3.3,0.1,4.4c1.2,1.1,3.1,1.1,4.3,0l7.5,4.4c-0.1,0.2-0.1,0.5-0.1,0.7c0,1.7,1.4,3.1,3.1,3.1
			s3.1-1.4,3.1-3.1C18.8,16.1,17.4,14.8,15.7,14.8L15.7,14.8L15.7,14.8z"/>
	</g>
</g>
</svg>
