<?xml version="1.0" encoding="utf-8"?>
<!-- Generator: Adobe Illustrator 24.1.3, SVG Export Plug-In . SVG Version: 6.00 Build 0)  -->
<svg version="1.1" id="Calque_1" xmlns="http://www.w3.org/2000/svg" xmlns:xlink="http://www.w3.org/1999/xlink" x="0px" y="0px"
	 viewBox="0 0 203.7 583.5" style="enable-background:new 0 0 203.7 583.5;" xml:space="preserve">
<style type="text/css">
	.st0{fill:none;}
	.st1{fill:#24A8A5;}
	.st2{fill:#394390;}
</style>
<path class="st0" d="M197.8,133.2L2,3.7v185.1c3.7,2.4,29,18.6,60.7,38.9v-6.6L197.8,133.2z"/>
<polygon class="st1" points="203.7,129.4 199.6,132.1 203.7,134.8 "/>
<path class="st1" d="M197.8,133.2L62.7,221.2v6.6c52.5,33.8,122.6,78.9,141.1,91.5V137.2L197.8,133.2z"/>
<path class="st1" d="M62.7,230.2v353.3l141.1-91.8l0-135.9v-34.1C187.3,310.5,116.2,264.6,62.7,230.2z"/>
<path class="st2" d="M2,188.9V3.7l195.8,129.5l1.8-1.2L0,0v190l0.5,0.3c0.7,0.4,27.8,17.8,62.2,39.9v-2.4
	C31,207.5,5.7,191.3,2,188.9z"/>
<polygon class="st2" points="203.7,137.2 203.7,134.8 199.6,132.1 197.8,133.2 "/>
<path class="st2" d="M203.7,319.3c-18.5-12.5-88.6-57.7-141.1-91.5v2.4c53.5,34.4,124.7,80.3,141.1,91.5V319.3z"/>
<polygon class="st2" points="203.7,134.8 203.7,129.4 203.7,129.4 203.7,134.8 "/>
<polygon class="st2" points="203.7,321.7 203.7,355.8 203.7,321.7 "/>
<polygon class="st2" points="203.7,319.3 203.7,319.3 203.7,137.2 203.7,137.2 "/>
<polygon class="st2" points="203.7,321.7 203.7,321.7 203.7,319.3 203.7,319.3 "/>
<polygon class="st2" points="203.7,137.2 203.7,137.2 203.7,134.8 203.7,134.8 "/>
</svg>
