<?xml version="1.0" encoding="utf-8"?>
<!-- Generator: Adobe Illustrator 24.1.3, SVG Export Plug-In . SVG Version: 6.00 Build 0)  -->
<svg version="1.1" id="Calque_1" xmlns="http://www.w3.org/2000/svg" xmlns:xlink="http://www.w3.org/1999/xlink" x="0px" y="0px"
	 viewBox="0 0 25.4 25.1" style="enable-background:new 0 0 25.4 25.1;" xml:space="preserve">
<style type="text/css">
	.st0{fill:#FFFFFF;}
</style>
<g id="Groupe_306" transform="translate(0 0)">
	<path id="Tracé_209" class="st0" d="M25.4,22.9l-3.1-3.1l-2.5-2.5c3.5-4.9,2.3-11.8-2.6-15.3S5.5-0.3,2,4.6s-2.3,11.8,2.6,15.3
		c3.9,2.8,9.2,2.7,13.1-0.3l4.2,4.2c0.1,0,0.1,0.1,0.2,0.1l1.1,1.1L25.4,22.9z M11,19.3c-4.6,0-8.4-3.7-8.4-8.3s3.7-8.4,8.3-8.4
		c4.6,0,8.4,3.7,8.4,8.3c0,1.9-0.6,3.7-1.7,5.1c-0.4,0.5-0.8,0.9-1.2,1.3C14.9,18.6,13,19.3,11,19.3z"/>
</g>
</svg>
