<?xml version="1.0" encoding="utf-8"?>
<!-- Generator: Adobe Illustrator 24.1.3, SVG Export Plug-In . SVG Version: 6.00 Build 0)  -->
<svg version="1.1" id="Calque_1" xmlns="http://www.w3.org/2000/svg" xmlns:xlink="http://www.w3.org/1999/xlink" x="0px" y="0px"
	 viewBox="0 0 25.3 19.9" style="enable-background:new 0 0 25.3 19.9;" xml:space="preserve">
<style type="text/css">
	.st0{fill:#24A8A5;}
</style>
<g id="Groupe_279" transform="translate(0 -44.8)">
	<g id="Groupe_75" transform="translate(0 44.8)">
		<g id="Groupe_74">
			<path id="Tracé_205" class="st0" d="M24.5,3.1c-0.5-0.5-1.2-0.9-2-0.8h-4v0c0-0.6-0.2-1.2-0.6-1.6c-0.4-0.4-1-0.6-1.6-0.6H9
				C7.8,0,6.8,1,6.8,2.2c0,0,0,0,0,0v0h-4c-0.8,0-1.5,0.3-2,0.8C0.3,3.6,0,4.4,0,5.1v12c0,0.8,0.3,1.5,0.8,2c0.5,0.5,1.2,0.8,2,0.8
				h19.6c0.8,0,1.5-0.3,2-0.8c0.5-0.5,0.8-1.2,0.8-2v-12C25.3,4.3,25,3.6,24.5,3.1z M24.1,17.1L24.1,17.1c0,0.9-0.7,1.6-1.6,1.6
				c0,0,0,0,0,0H2.8c-0.9,0-1.6-0.7-1.6-1.6c0,0,0,0,0,0v-12c0-0.9,0.7-1.6,1.6-1.6c0,0,0,0,0,0h4.6c0.4,0,0.6-0.3,0.6-0.6
				c0,0,0,0,0,0V2.2c0-0.5,0.4-0.9,0.9-0.9c0,0,0,0,0.1,0h7.2c0.5,0,0.9,0.4,0.9,0.9c0,0,0,0,0,0.1v0.7c0,0.4,0.3,0.6,0.6,0.6
				c0,0,0,0,0,0h4.6c0.9,0,1.6,0.7,1.6,1.6c0,0,0,0,0,0L24.1,17.1z"/>
			<path id="Tracé_206" class="st0" d="M12.7,5.2c-3.3,0-5.9,2.7-5.9,5.9c0,3.3,2.7,5.9,5.9,5.9c3.3,0,5.9-2.7,5.9-5.9
				c0-1.6-0.6-3.1-1.7-4.2C15.7,5.8,14.2,5.2,12.7,5.2z M15.9,14.4c-1.8,1.8-4.7,1.8-6.5,0c-0.9-0.9-1.4-2-1.3-3.3
				c0-1.2,0.5-2.4,1.3-3.3c0.9-0.9,2-1.4,3.3-1.3c1.2,0,2.4,0.5,3.3,1.3c0.9,0.9,1.4,2,1.3,3.3C17.3,12.3,16.8,13.5,15.9,14.4
				L15.9,14.4z"/>
			<circle id="Ellipse_9" class="st0" cx="21.2" cy="6.3" r="1.2"/>
		</g>
	</g>
</g>
</svg>
