<?xml version="1.0" encoding="utf-8"?>
<!-- Generator: Adobe Illustrator 24.1.3, SVG Export Plug-In . SVG Version: 6.00 Build 0)  -->
<svg version="1.1" id="Calque_1" xmlns="http://www.w3.org/2000/svg" xmlns:xlink="http://www.w3.org/1999/xlink" x="0px" y="0px"
	 viewBox="0 0 306.5 800" style="enable-background:new 0 0 306.5 800;" xml:space="preserve">
<style type="text/css">
	.st0{fill:#FDC53D;}
	.st1{fill:#334192;}
</style>
<g id="Groupe_271" transform="translate(0.959)">
	<path id="Tracé_158" class="st0" d="M197.5,695.6L40.6,797.7V394.9l156.9-102.1V695.6z"/>
	<path id="Tracé_159" class="st1" d="M196.6,695.2l107.1-70.9V75.2L196.6,5.4V695.2z"/>
	<path class="st1" d="M40.1,521.9L0.2,494.8l0-0.5c0,0-0.1-31.7-0.2-63.5c0-18.4,0-33.2,0-43.7c0-20.4,0-20.4,0.6-20.8l0.6-0.5
		l0.6,0.4L198.1,499l-1.1,1.7L2.2,368.9c-0.2,12-0.1,84.9,0.1,124.9l39,26.5L40.1,521.9z"/>
</g>
</svg>
