<?xml version="1.0" encoding="utf-8"?>
<!-- Generator: Adobe Illustrator 24.1.3, SVG Export Plug-In . SVG Version: 6.00 Build 0)  -->
<svg version="1.1" id="Calque_1" xmlns="http://www.w3.org/2000/svg" xmlns:xlink="http://www.w3.org/1999/xlink" x="0px" y="0px"
	 viewBox="0 0 1206.5 673.8" style="enable-background:new 0 0 1206.5 673.8;" xml:space="preserve">
<style type="text/css">
	.st0{fill:#192440;}
	.st1{fill:url(#Tracé_33_1_);}
	.st2{fill:url(#Tracé_34_1_);}
	.st3{fill:url(#Tracé_35_1_);}
</style>
<g id="Groupe_2" transform="translate(59.847 65.552)">
	<g id="Groupe_1" transform="translate(0 0)">
		<path id="Tracé_1" class="st0" d="M469,536.9c-2.3-1.3-4.2-3.1-5.6-5.4c-2.7-4.8-2.7-10.7,0-15.5c1.3-2.3,3.3-4.2,5.6-5.4
			c2.5-1.3,5.2-2,8-1.9c2.1,0,4.2,0.4,6.1,1.1c1.8,0.7,3.4,1.8,4.8,3.2l-2,2c-2.3-2.3-5.5-3.6-8.8-3.5c-2.2,0-4.4,0.5-6.4,1.6
			c-1.9,1-3.4,2.6-4.5,4.4c-2.2,3.9-2.2,8.7,0,12.6c1.1,1.9,2.6,3.4,4.5,4.4c2,1.1,4.2,1.6,6.4,1.6c3.3,0.1,6.5-1.2,8.8-3.6l2,2
			c-1.3,1.4-3,2.5-4.8,3.2c-2,0.8-4,1.1-6.1,1.1C474.2,538.9,471.5,538.3,469,536.9z"/>
		<path id="Tracé_2" class="st0" d="M496.3,537.4c-1.7-1-3.1-2.4-4.1-4.1c-2-3.7-2-8.1,0-11.7c1-1.7,2.4-3.1,4.1-4
			c3.6-1.9,8-1.9,11.6,0c1.7,0.9,3.1,2.3,4.1,4c1.9,3.7,1.9,8.1,0,11.7c-0.9,1.7-2.4,3.1-4.1,4.1
			C504.3,539.3,499.9,539.3,496.3,537.4z M506.4,535.1c1.3-0.7,2.3-1.8,3-3.1c1.4-2.9,1.4-6.2,0-9.1c-0.7-1.3-1.7-2.4-3-3.1
			c-2.7-1.4-5.9-1.4-8.5,0c-1.3,0.7-2.3,1.8-3,3.1c-1.4,2.9-1.4,6.2,0,9.1c0.7,1.3,1.7,2.4,3,3.1
			C500.5,536.5,503.7,536.5,506.4,535.1z"/>
		<path id="Tracé_3" class="st0" d="M537.6,518.6c1.8,1.9,2.7,4.5,2.5,7.1v13h-3V526c0.1-1.9-0.5-3.8-1.7-5.3
			c-1.3-1.3-3.1-1.9-5-1.8c-2.1-0.1-4.2,0.7-5.7,2.1c-1.5,1.6-2.2,3.7-2.1,5.9v11.7h-3v-22.4h2.9v4.1c0.8-1.4,2-2.4,3.4-3.2
			c1.6-0.8,3.3-1.2,5.1-1.1C533.4,516,535.8,516.9,537.6,518.6z"/>
		<path id="Tracé_4" class="st0" d="M549.1,538.1c-1.4-0.4-2.7-1.1-3.9-2l1.4-2.4c1.1,0.8,2.3,1.4,3.5,1.8c1.4,0.5,2.9,0.7,4.4,0.7
			c1.6,0.1,3.1-0.2,4.5-1c0.9-0.6,1.5-1.6,1.5-2.7c0-0.7-0.3-1.4-0.8-1.9c-0.6-0.5-1.3-0.9-2-1.1c-1.1-0.3-2.2-0.5-3.3-0.7
			c-1.5-0.3-2.9-0.6-4.3-1c-1.1-0.3-2.1-1-2.8-1.8c-0.8-1-1.2-2.2-1.2-3.5c0-1.8,0.9-3.5,2.3-4.6c1.9-1.3,4.2-1.9,6.5-1.8
			c1.5,0,2.9,0.2,4.3,0.6c1.3,0.3,2.5,0.8,3.6,1.5l-1.3,2.4c-1.9-1.3-4.2-2-6.6-1.9c-1.5-0.1-3,0.3-4.3,1c-0.9,0.6-1.5,1.6-1.5,2.7
			c0,0.8,0.3,1.5,0.9,2c0.6,0.5,1.3,0.9,2.1,1.1c1.1,0.3,2.3,0.6,3.4,0.7c1.5,0.3,2.9,0.6,4.3,1c1.1,0.3,2,0.9,2.8,1.7
			c0.8,0.9,1.2,2.2,1.1,3.4c0,1.9-0.9,3.6-2.4,4.6c-2,1.3-4.4,1.9-6.8,1.7C552.6,538.9,550.8,538.6,549.1,538.1z"/>
		<path id="Tracé_5" class="st0" d="M580.8,537.3c-0.6,0.5-1.3,0.9-2.1,1.2c-0.8,0.3-1.7,0.4-2.6,0.4c-3.2,0.4-6.2-2-6.5-5.2
			c0-0.4,0-0.8,0-1.3v-13.5h-4v-2.5h4v-4.9h3v4.9h6.8v2.5h-6.8v13.3c-0.1,1.1,0.3,2.2,1,3c0.8,0.7,1.8,1.1,2.9,1
			c0.6,0,1.2-0.1,1.8-0.3c0.6-0.2,1.1-0.5,1.5-0.9L580.8,537.3z"/>
		<path id="Tracé_6" class="st0" d="M592.3,517.3c1.6-0.8,3.4-1.2,5.2-1.2v2.9h-0.7c-2.1-0.1-4.1,0.7-5.5,2.2
			c-1.4,1.7-2.1,3.9-2,6.1v11.4h-3v-22.4h2.9v4.3C589.8,519.2,590.9,518,592.3,517.3z"/>
		<path id="Tracé_7" class="st0" d="M623.4,516.3v22.3h-2.9v-4.1c-0.8,1.3-1.9,2.4-3.3,3.2c-1.5,0.8-3.1,1.2-4.8,1.1
			c-4.8,0.5-9-3-9.4-7.8c-0.1-0.6-0.1-1.2,0-1.8v-12.9h3V529c-0.1,1.9,0.5,3.9,1.7,5.3c1.3,1.3,3.1,1.9,5,1.8
			c2.1,0.1,4.1-0.7,5.6-2.1c1.4-1.6,2.2-3.8,2-6v-11.7H623.4z"/>
		<path id="Tracé_8" class="st0" d="M635.2,537.4c-1.7-0.9-3.1-2.3-4.1-4.1c-2-3.7-2-8.1,0-11.7c1-1.7,2.4-3.1,4.1-4
			c1.8-1,3.9-1.5,5.9-1.4c1.8,0,3.6,0.3,5.2,1.1c1.5,0.7,2.7,1.9,3.6,3.3l-2.3,1.5c-0.7-1.1-1.7-1.9-2.8-2.5
			c-1.1-0.6-2.4-0.9-3.7-0.9c-1.5,0-3,0.4-4.3,1.1c-1.3,0.7-2.3,1.8-3,3.1c-1.4,2.9-1.4,6.2,0,9.1c0.7,1.3,1.7,2.3,3,3.1
			c1.3,0.7,2.8,1.1,4.3,1.1c1.3,0,2.5-0.3,3.7-0.8c1.1-0.5,2.1-1.4,2.8-2.5l2.3,1.5c-0.9,1.4-2.1,2.6-3.6,3.3
			c-1.6,0.8-3.4,1.2-5.1,1.1C639.1,538.9,637,538.4,635.2,537.4z"/>
		<path id="Tracé_9" class="st0" d="M667.7,537.3c-0.6,0.5-1.3,0.9-2.1,1.2c-0.8,0.3-1.7,0.4-2.6,0.4c-3.2,0.4-6.2-2-6.5-5.2
			c0-0.4,0-0.8,0-1.3v-13.5h-4v-2.5h4v-4.9h3v4.9h6.8v2.5h-6.8v13.3c-0.1,1.1,0.3,2.2,1,3c0.8,0.7,1.8,1.1,2.9,1
			c0.6,0,1.2-0.1,1.8-0.3c0.6-0.2,1.1-0.5,1.5-0.9L667.7,537.3z"/>
		<path id="Tracé_10" class="st0" d="M673.2,510.8c-0.4-0.4-0.6-1-0.6-1.5c0-0.6,0.2-1.1,0.6-1.5c0.4-0.4,1-0.6,1.6-0.6
			c0.6,0,1.1,0.2,1.6,0.6c0.4,0.4,0.6,0.9,0.6,1.5c0,1.2-1,2.2-2.3,2.2C674.1,511.4,673.6,511.2,673.2,510.8L673.2,510.8z
			 M673.2,516.3h3v22.3h-3V516.3z"/>
		<path id="Tracé_11" class="st0" d="M687.9,537.4c-1.7-1-3.1-2.4-4.1-4.1c-2-3.7-2-8.1,0-11.7c1-1.7,2.4-3.1,4.1-4
			c3.6-1.9,8-1.9,11.6,0c1.7,0.9,3.1,2.3,4.1,4c2,3.7,2,8.1,0,11.7c-0.9,1.7-2.4,3.1-4.1,4.1C695.9,539.3,691.6,539.3,687.9,537.4z
			 M698,535.1c1.3-0.7,2.3-1.8,3-3.1c1.4-2.9,1.4-6.2,0-9.1c-0.7-1.3-1.7-2.4-3-3.1c-2.7-1.4-5.9-1.4-8.5,0c-1.3,0.7-2.3,1.8-3,3.1
			c-1.4,2.9-1.4,6.2,0,9.1c0.7,1.3,1.7,2.4,3,3.1C692.2,536.5,695.4,536.5,698,535.1z"/>
		<path id="Tracé_12" class="st0" d="M729.3,518.6c1.8,1.9,2.7,4.5,2.5,7.1v13h-3V526c0.1-1.9-0.5-3.8-1.7-5.3
			c-1.3-1.3-3.1-1.9-5-1.8c-2.1-0.1-4.2,0.7-5.7,2.1c-1.5,1.6-2.2,3.7-2.1,5.9v11.7h-3v-22.4h2.9v4.1c0.8-1.4,2-2.4,3.4-3.2
			c1.6-0.8,3.3-1.2,5.1-1.1C725.1,516,727.5,516.9,729.3,518.6z"/>
		<path id="Tracé_13" class="st0" d="M773.4,511.7c4.1,3.9,4.3,10.3,0.5,14.5c-0.1,0.2-0.3,0.3-0.5,0.5c-2.6,1.9-5.7,2.9-8.9,2.7
			h-8v9.4h-3.1v-29.7h11.1C767.7,508.8,770.9,509.7,773.4,511.7z M771.2,524.6c1.6-1.4,2.5-3.4,2.3-5.5c0.1-2.1-0.7-4.2-2.3-5.5
			c-2-1.4-4.3-2.1-6.7-1.9h-7.9v14.9h7.9C766.9,526.7,769.2,526,771.2,524.6L771.2,524.6z"/>
		<path id="Tracé_14" class="st0" d="M788.3,517.3c1.6-0.8,3.4-1.2,5.2-1.2v2.9h-0.7c-2.1-0.1-4.1,0.7-5.5,2.2
			c-1.4,1.7-2.1,3.9-2,6.1v11.4h-3v-22.4h2.9v4.3C785.8,519.2,786.9,518,788.3,517.3z"/>
		<path id="Tracé_15" class="st0" d="M802,537.4c-1.7-1-3.1-2.4-4.1-4.1c-2-3.7-2-8.1,0-11.7c1-1.7,2.4-3.1,4.1-4
			c3.6-1.9,8-1.9,11.6,0c1.7,0.9,3.1,2.3,4.1,4c2,3.7,2,8.1,0,11.7c-0.9,1.7-2.4,3.1-4.1,4.1C810,539.3,805.7,539.3,802,537.4z
			 M812.1,535.1c1.3-0.7,2.3-1.8,3-3.1c1.4-2.9,1.4-6.2,0-9.1c-0.7-1.3-1.7-2.4-3-3.1c-2.7-1.4-5.9-1.4-8.5,0
			c-1.3,0.7-2.3,1.8-3,3.1c-1.4,2.9-1.4,6.2,0,9.1c0.7,1.3,1.7,2.4,3,3.1C806.2,536.5,809.5,536.5,812.1,535.1z"/>
		<path id="Tracé_16" class="st0" d="M819.4,546.7c-0.8-0.2-1.5-0.6-2.1-1.1l1.1-2.3c1,0.8,2.2,1.2,3.5,1.1c1,0.1,2-0.3,2.7-1.1
			c0.7-0.9,1-2,1-3.1v-24h3v24c0.1,1.8-0.5,3.6-1.7,5c-1.3,1.3-3,1.9-4.8,1.8C821.1,547.1,820.2,547,819.4,546.7z M825.5,510.8
			c-0.4-0.4-0.6-1-0.6-1.5c0-0.6,0.2-1.1,0.6-1.5c0.4-0.4,1-0.6,1.6-0.6c0.6,0,1.1,0.2,1.6,0.6c0.4,0.4,0.6,0.9,0.6,1.5
			c0,1.2-1,2.2-2.2,2.2C826.5,511.4,825.9,511.2,825.5,510.8L825.5,510.8z"/>
		<path id="Tracé_17" class="st0" d="M856.4,528.4h-18.7c0.1,2.2,1.1,4.2,2.7,5.6c1.7,1.5,3.9,2.2,6.1,2.1c1.3,0,2.6-0.2,3.8-0.7
			c1.2-0.5,2.2-1.2,3-2.2l1.7,2c-1,1.2-2.3,2.1-3.7,2.7c-1.6,0.6-3.2,1-4.9,0.9c-2.1,0-4.2-0.5-6.1-1.5c-1.7-0.9-3.2-2.3-4.1-4.1
			c-1-1.8-1.5-3.8-1.5-5.9c0-2,0.5-4.1,1.4-5.9c0.9-1.7,2.3-3.1,3.9-4c1.7-1,3.6-1.5,5.6-1.4c1.9,0,3.9,0.5,5.6,1.4
			c1.6,1,3,2.3,3.9,4c1,1.8,1.4,3.8,1.4,5.9L856.4,528.4z M840.2,520.8c-1.5,1.4-2.4,3.3-2.5,5.4h15.8c-0.1-2-1-4-2.5-5.4
			C848,518.1,843.3,518.1,840.2,520.8L840.2,520.8z"/>
		<path id="Tracé_18" class="st0" d="M865.9,537.4c-1.7-0.9-3.1-2.3-4.1-4.1c-2-3.7-2-8.1,0-11.7c1-1.7,2.4-3.1,4.1-4
			c1.8-1,3.9-1.5,5.9-1.4c1.8,0,3.6,0.3,5.2,1.1c1.5,0.7,2.7,1.9,3.6,3.3l-2.3,1.5c-0.7-1.1-1.7-1.9-2.8-2.5
			c-1.1-0.6-2.4-0.9-3.7-0.9c-1.5,0-3,0.4-4.3,1.1c-1.3,0.7-2.3,1.8-3,3.1c-1.4,2.9-1.4,6.2,0,9.1c0.7,1.3,1.7,2.3,3,3.1
			c1.3,0.7,2.8,1.1,4.3,1.1c1.3,0,2.5-0.3,3.7-0.8c1.1-0.5,2.1-1.4,2.8-2.5l2.3,1.5c-0.9,1.4-2.1,2.6-3.6,3.3
			c-1.6,0.8-3.4,1.2-5.1,1.1C869.8,538.9,867.7,538.4,865.9,537.4z"/>
		<path id="Tracé_19" class="st0" d="M898.5,537.3c-0.6,0.5-1.3,0.9-2.1,1.2c-0.8,0.3-1.7,0.4-2.6,0.4c-3.2,0.4-6.2-2-6.5-5.2
			c0-0.4,0-0.8,0-1.3v-13.5h-4v-2.5h4v-4.9h3v4.9h6.8v2.5h-6.8v13.3c-0.1,1.1,0.3,2.2,1,3c0.8,0.7,1.8,1.1,2.9,1
			c0.6,0,1.2-0.1,1.8-0.3c0.6-0.2,1.1-0.5,1.5-0.9L898.5,537.3z"/>
		<path id="Tracé_20" class="st0" d="M923.2,536.9c-2.3-1.3-4.2-3.1-5.6-5.4c-2.7-4.8-2.7-10.7,0-15.5c1.3-2.3,3.3-4.2,5.6-5.4
			c2.5-1.3,5.2-2,8-1.9c2.1,0,4.2,0.4,6.1,1.1c1.8,0.7,3.4,1.8,4.8,3.2l-2,2c-2.3-2.3-5.5-3.6-8.8-3.5c-2.2,0-4.4,0.5-6.4,1.6
			c-1.9,1-3.4,2.6-4.5,4.4c-2.2,3.9-2.2,8.7,0,12.6c1.1,1.9,2.6,3.4,4.5,4.4c2,1.1,4.2,1.6,6.4,1.6c3.3,0.1,6.5-1.2,8.8-3.6l2,2
			c-1.3,1.4-3,2.5-4.8,3.2c-2,0.8-4,1.1-6.1,1.1C928.4,538.9,925.6,538.3,923.2,536.9z"/>
		<path id="Tracé_21" class="st0" d="M950.5,537.4c-1.7-1-3.1-2.4-4.1-4.1c-2-3.7-2-8.1,0-11.7c1-1.7,2.4-3.1,4.1-4
			c3.6-1.9,8-1.9,11.6,0c1.7,0.9,3.1,2.3,4.1,4c2,3.7,2,8.1,0,11.7c-1,1.7-2.4,3.1-4.1,4.1C958.4,539.3,954.1,539.3,950.5,537.4z
			 M960.5,535.1c1.3-0.7,2.3-1.8,3-3.1c1.4-2.9,1.4-6.2,0-9.1c-0.7-1.3-1.7-2.4-3-3.1c-2.7-1.4-5.9-1.4-8.5,0
			c-1.3,0.7-2.3,1.8-3,3.1c-1.4,2.9-1.4,6.2,0,9.1c0.7,1.3,1.7,2.4,3,3.1C954.7,536.5,957.9,536.5,960.5,535.1z"/>
		<path id="Tracé_22" class="st0" d="M991.8,518.6c1.8,1.9,2.7,4.5,2.5,7.1v13h-3V526c0.1-1.9-0.5-3.8-1.7-5.3
			c-1.3-1.3-3.1-1.9-5-1.8c-2.1-0.1-4.2,0.7-5.7,2.1c-1.5,1.6-2.2,3.7-2.1,5.9v11.7h-3v-22.4h2.9v4.1c0.8-1.4,2-2.4,3.4-3.2
			c1.6-0.8,3.3-1.2,5.1-1.1C987.6,516,990,516.9,991.8,518.6z"/>
		<path id="Tracé_23" class="st0" d="M1003.3,538.1c-1.4-0.4-2.7-1.1-3.9-2l1.4-2.4c1.1,0.8,2.3,1.4,3.5,1.8
			c1.4,0.5,2.9,0.7,4.4,0.7c1.6,0.1,3.1-0.2,4.5-1c0.9-0.6,1.5-1.6,1.5-2.7c0-0.7-0.3-1.4-0.8-1.9c-0.6-0.5-1.3-0.9-2-1.1
			c-1.1-0.3-2.2-0.5-3.3-0.7c-1.5-0.3-2.9-0.6-4.3-1c-1.1-0.3-2.1-1-2.8-1.8c-0.8-1-1.2-2.2-1.2-3.5c0-1.8,0.9-3.5,2.3-4.6
			c1.9-1.3,4.2-1.9,6.5-1.8c1.5,0,2.9,0.2,4.3,0.6c1.3,0.3,2.5,0.8,3.6,1.5l-1.3,2.4c-1.9-1.3-4.2-2-6.6-1.9c-1.5-0.1-3,0.3-4.3,1
			c-0.9,0.6-1.5,1.6-1.5,2.7c0,0.8,0.3,1.5,0.9,2c0.6,0.5,1.3,0.9,2.1,1.1c1.1,0.3,2.3,0.6,3.4,0.7c1.5,0.3,2.9,0.6,4.3,1
			c1.1,0.3,2,0.9,2.8,1.7c0.8,0.9,1.2,2.2,1.2,3.4c0,1.9-0.9,3.6-2.4,4.6c-2,1.3-4.4,1.9-6.8,1.7
			C1006.8,538.9,1005,538.6,1003.3,538.1z"/>
		<path id="Tracé_24" class="st0" d="M1043.3,516.3v22.3h-2.9v-4.1c-0.8,1.3-1.9,2.4-3.3,3.2c-1.5,0.8-3.1,1.2-4.8,1.1
			c-4.8,0.5-9-3-9.4-7.8c-0.1-0.6-0.1-1.2,0-1.8v-12.9h3V529c-0.1,1.9,0.5,3.9,1.7,5.3c1.3,1.3,3.1,1.9,5,1.8
			c2.1,0.1,4.1-0.7,5.6-2.1c1.4-1.6,2.2-3.8,2-6v-11.7H1043.3z"/>
		<path id="Tracé_25" class="st0" d="M1051.8,507.1h3v31.5h-3V507.1z"/>
		<path id="Tracé_26" class="st0" d="M1075,537.3c-0.6,0.5-1.3,0.9-2.1,1.2c-0.8,0.3-1.7,0.4-2.6,0.4c-3.2,0.4-6.2-2-6.5-5.2
			c0-0.4,0-0.8,0-1.3v-13.5h-4v-2.5h4v-4.9h3v4.9h6.8v2.5h-6.8v13.3c-0.1,1.1,0.3,2.2,1,3c0.8,0.7,1.8,1.1,2.9,1
			c0.6,0,1.2-0.1,1.8-0.3c0.6-0.2,1.1-0.5,1.5-0.9L1075,537.3z"/>
		<path id="Tracé_27" class="st0" d="M1080.5,510.8c-0.4-0.4-0.6-1-0.6-1.5c0-0.6,0.2-1.1,0.6-1.5c0.4-0.4,1-0.6,1.6-0.6
			c0.6,0,1.1,0.2,1.6,0.6c0.4,0.4,0.6,0.9,0.6,1.5c0,1.2-1,2.2-2.3,2.2C1081.4,511.4,1080.9,511.2,1080.5,510.8L1080.5,510.8z
			 M1080.5,516.3h3v22.3h-3V516.3z"/>
		<path id="Tracé_28" class="st0" d="M1110,518.6c1.8,1.9,2.7,4.5,2.5,7.1v13h-3V526c0.1-1.9-0.5-3.8-1.7-5.3
			c-1.3-1.3-3.1-1.9-5-1.8c-2.1-0.1-4.2,0.7-5.7,2.1c-1.5,1.6-2.2,3.7-2.1,5.9v11.7h-3v-22.4h2.9v4.1c0.8-1.4,2-2.4,3.4-3.2
			c1.6-0.8,3.3-1.2,5.1-1.1C1105.8,516,1108.2,516.9,1110,518.6z"/>
		<path id="Tracé_29" class="st0" d="M1141.4,516.3v19.6c0.3,3.1-0.8,6.1-2.8,8.4c-2.3,2-5.3,3-8.4,2.7c-2,0-4-0.3-5.9-0.9
			c-1.7-0.5-3.2-1.4-4.5-2.5l1.5-2.3c1.1,1,2.5,1.8,3.9,2.3c1.6,0.5,3.2,0.8,4.9,0.8c2.3,0.2,4.5-0.5,6.2-2c1.5-1.7,2.2-3.9,2-6.1
			v-2.8c-0.9,1.4-2.2,2.5-3.7,3.2c-1.6,0.8-3.3,1.1-5,1.1c-2,0-3.9-0.4-5.7-1.4c-1.7-0.9-3.1-2.2-4-3.9c-1-1.7-1.5-3.7-1.5-5.6
			c0-2,0.5-3.9,1.5-5.6c1-1.6,2.3-2.9,4-3.8c1.8-0.9,3.7-1.4,5.7-1.4c1.8,0,3.5,0.4,5.1,1.2c1.5,0.7,2.8,1.9,3.7,3.3v-4.3
			L1141.4,516.3z M1134.3,534.1c1.3-0.7,2.3-1.7,3-2.9c0.7-1.3,1.1-2.8,1.1-4.2c0-1.5-0.3-2.9-1.1-4.2c-0.7-1.2-1.8-2.2-3-2.9
			c-2.8-1.4-6-1.4-8.7,0c-1.3,0.7-2.3,1.7-3,2.9c-1.4,2.6-1.4,5.8,0,8.5c0.7,1.2,1.8,2.2,3,2.9c1.3,0.7,2.8,1.1,4.3,1
			C1131.5,535.2,1133,534.8,1134.3,534.1z"/>
	</g>
</g>
<path id="Tracé_30" class="st0" d="M922.4,343.7c14.5,8.1,26.4,20.1,34.4,34.6c16.6,32.6,16.6,71.2,0,103.8
	c-8,14.5-19.9,26.5-34.4,34.6c-14.9,8.3-31.7,12.5-48.7,12.3c-26.4,0-46.5-8.3-60.3-25v22.1h-53.2V247.5h55.6v107.1
	c14.9-15.8,36-24.3,57.8-23.2C890.7,331.2,907.5,335.4,922.4,343.7z M899.3,468.9c18.3-22.5,18.3-54.8,0-77.4
	c-19.5-19.3-50.8-19.3-70.3,0c-18.3,22.5-18.3,54.8,0,77.4C848.5,488.1,879.8,488.1,899.3,468.9z"/>
<path id="Tracé_31" class="st0" d="M1179.8,352.6c14.6,14.3,21.9,35.4,21.9,63.5v109.8h-55.6V424.6c0.9-12.2-2.6-24.3-10-34.1
	c-7.5-7.8-18.1-12-28.9-11.3c-12.5-0.6-24.7,4.1-33.5,13c-9.1,10.8-13.5,24.7-12.5,38.7v94.9h-55.6V266.7l55.6-30.9V354
	c7.6-7.5,16.7-13.3,26.7-16.9c11-4,22.6-6,34.2-5.9C1143.5,330.3,1164.2,338,1179.8,352.6z"/>
<path id="Tracé_32" class="st0" d="M695.5,352.6c-15.5-14.6-36.3-22.3-57.6-21.4c-11.7-0.1-23.3,1.9-34.2,5.9
	c-10,3.7-19.2,9.4-26.7,16.9V247.5h-55.6v292.9l55.6-31.2V431c-1.1-14,3.4-27.9,12.5-38.7c8.8-8.9,21-13.6,33.5-13
	c10.8-0.7,21.4,3.4,28.9,11.3c7.4,9.8,10.9,21.9,10,34.1V526h55.6V416.1C717.4,388,710.1,366.9,695.5,352.6z"/>
<linearGradient id="Tracé_33_1_" gradientUnits="userSpaceOnUse" x1="-22.5104" y1="1210.8793" x2="10.1137" y2="1200.7952" gradientTransform="matrix(17.412 0 0 -55.141 265.4102 66721.1094)">
	<stop  offset="0.17" style="stop-color:#24A8A5"/>
	<stop  offset="1" style="stop-color:#243876"/>
</linearGradient>
<path id="Tracé_33" class="st1" d="M345,247.2v235.4l-55.9-31.3v220.1l150.7-84.5V194L345,247.2z"/>
<linearGradient id="Tracé_34_1_" gradientUnits="userSpaceOnUse" x1="-19.3754" y1="1211.8126" x2="13.3612" y2="1200.9841" gradientTransform="matrix(17.412 0 0 -51.528 254.4511 62341.1172)">
	<stop  offset="0.17" style="stop-color:#24A8A5"/>
	<stop  offset="1" style="stop-color:#243876"/>
</linearGradient>
<path id="Tracé_34" class="st2" d="M345,247.2V89.7L194.3,5.3v392.9l94.9,53.2V278.5L345,247.2z"/>
<linearGradient id="Tracé_35_1_" gradientUnits="userSpaceOnUse" x1="-25.8909" y1="1209.1071" x2="6.7678" y2="1199.0143" gradientTransform="matrix(17.412 0 0 -55.142 232.3851 66710.2656)">
	<stop  offset="0.17" style="stop-color:#24A8A5"/>
	<stop  offset="1" style="stop-color:#243876"/>
</linearGradient>
<path id="Tracé_35" class="st3" d="M3.3,174.2v392.8L154,482.6V89.8L3.3,174.2z"/>
</svg>
