<?xml version="1.0" encoding="utf-8"?>
<!-- Generator: Adobe Illustrator 24.1.3, SVG Export Plug-In . SVG Version: 6.00 Build 0)  -->
<svg version="1.1" id="Calque_1" xmlns="http://www.w3.org/2000/svg" xmlns:xlink="http://www.w3.org/1999/xlink" x="0px" y="0px"
	 viewBox="0 0 18.6 17.9" style="enable-background:new 0 0 18.6 17.9;" xml:space="preserve">
<style type="text/css">
	.st0{fill:#FFFFFF;}
</style>
<g id="Groupe_9" transform="translate(0 -9.558)">
	<path id="LinkedIn" class="st0" d="M18.4,20.4v6.8h-3.9v-6.3c0-1.6-0.6-2.7-2-2.7c-0.9,0-1.7,0.6-2,1.4c-0.1,0.3-0.1,0.6-0.1,1v6.6
		H6.4c0,0,0.1-10.7,0-11.8h3.9V17c0,0,0,0,0,0h0v0c0.7-1.3,2.1-2,3.5-2C16.5,15.1,18.4,16.8,18.4,20.4z M2.3,9.7
		C1.1,9.6,0.1,10.4,0,11.5s0.7,2.1,1.9,2.2c0.1,0,0.2,0,0.3,0h0c1.1,0.1,2.1-0.7,2.2-1.9c0.1-1.1-0.7-2.1-1.9-2.2
		C2.5,9.6,2.4,9.6,2.3,9.7L2.3,9.7z M0.3,27.2h3.9V15.4H0.3V27.2z"/>
</g>
</svg>
