<?xml version="1.0" encoding="utf-8"?>
<!-- Generator: Adobe Illustrator 24.1.3, SVG Export Plug-In . SVG Version: 6.00 Build 0)  -->
<svg version="1.1" id="Calque_1" xmlns="http://www.w3.org/2000/svg" xmlns:xlink="http://www.w3.org/1999/xlink" x="0px" y="0px"
	 viewBox="0 0 538 430.3" style="enable-background:new 0 0 538 430.3;" xml:space="preserve">
<style type="text/css">
	.st0{fill:#FFFFFF;}
</style>
<g id="Groupe_23" transform="translate(-8.982 -6.5)">
	<g id="Groupe_21" transform="translate(11.78 44.548)">
		<path id="Tracé_104" class="st0" d="M115.5,258.2l18.1,41.8l18.2-41.8l10.1,52.7h-5.7l-6.4-33.7h-0.1l-16.1,35.8l-16-35.8h-0.1
			l-6.4,33.7h-5.7L115.5,258.2z"/>
		<path id="Tracé_105" class="st0" d="M183.7,296.7l-6,14.1h-6.1l23-52.2l22.4,52.2h-6.2l-5.9-14.1H183.7z M194.4,271.6l-8.6,20
			h16.9L194.4,271.6z"/>
		<path id="Tracé_106" class="st0" d="M230.3,261h9.4c7-0.6,14,1.6,19.5,6c10.4,9.6,11.1,25.8,1.5,36.2c-0.4,0.5-0.9,0.9-1.4,1.4
			c-5.4,4.7-12.6,6.9-19.7,6.3h-9.3L230.3,261z M239.9,305.7c5.7,0.5,11.4-1.3,15.7-5.2c8.1-7.8,8.3-20.7,0.5-28.8
			c-0.3-0.3-0.5-0.5-0.8-0.8c-4.3-3.6-9.9-5.3-15.5-4.8h-4v39.5L239.9,305.7z"/>
		<path id="Tracé_107" class="st0" d="M283.1,261h25.8v5.2h-20.3V281h19.7v5.2h-19.7v19.6h20.3v5.2h-25.8V261z"/>
		<path id="Tracé_108" class="st0" d="M360.3,310.8h-5.6V261h5.6V310.8z"/>
		<path id="Tracé_109" class="st0" d="M378.7,258.9l38.9,40.7V261h5.6v52.1l-38.9-40.7v38.4h-5.6V258.9z"/>
		<path id="Tracé_110" class="st0" d="M25.3,385H39v5.2H19.7v-49.8h5.6V385z"/>
		<path id="Tracé_111" class="st0" d="M57.8,370c-0.5,3.8,0.3,7.7,2.2,11.1c2.5,3,6.2,4.8,10.1,4.8c3.7,0,7.3-1.6,9.8-4.4
			c2.1-3.4,3-7.5,2.4-11.4v-29.7h5.6v31.2c0.6,5-1,10.1-4.4,13.8c-3.5,3.7-8.4,5.7-13.4,5.7c-4.8,0-9.4-1.8-12.9-5.1
			c-3.7-3.8-5.5-9.1-4.9-14.4v-31.2h5.6L57.8,370z"/>
		<path id="Tracé_112" class="st0" d="M102.7,340.3h6.3l10.2,18.8l10.2-18.8h6.3l-13.5,24.1l14.7,25.8h-6.3l-11.4-20.5l-11.4,20.5
			h-6.3l14.7-25.8L102.7,340.3z"/>
		<path id="Tracé_113" class="st0" d="M150.9,340.3h25.8v5.2h-20.3v14.8h19.7v5.2h-19.7V385h20.3v5.2h-25.8V340.3z"/>
		<path id="Tracé_114" class="st0" d="M200.6,337.5l18.1,41.8l18.2-41.8l10.1,52.7h-5.7l-6.4-33.7h-0.1l-16.1,35.8l-16-35.8h-0.1
			l-6.4,33.7h-5.7L200.6,337.5z"/>
		<path id="Tracé_115" class="st0" d="M261.2,340.3h8.2c9.1,0,16.7,3.3,16.7,13.5c0.2,3.9-1.7,7.6-4.9,9.7
			c5.8,1.5,9.7,6.8,9.5,12.8c0,9.9-8,13.9-17.9,13.9h-11.6L261.2,340.3z M266.8,362.3h2.1c6.3,0,11.6-0.7,11.6-8.5
			c0-7.5-4.8-8.3-11.6-8.3h-2.2V362.3z M266.8,385h5.6c6.2,0,12.8-1.6,12.8-9.1c0-7.7-7.4-8.9-13.5-8.9h-4.8L266.8,385z"/>
		<path id="Tracé_116" class="st0" d="M356.2,365.3c0.1,14.3-11.5,26-25.8,26.1c-14.3,0.1-26-11.5-26.1-25.8
			c-0.1-14.3,11.5-26,25.8-26.1c0,0,0.1,0,0.1,0c14.3-0.1,25.9,11.4,26,25.7C356.2,365.2,356.2,365.3,356.2,365.3z M309.8,365.3
			c0.1,11.3,9.3,20.3,20.6,20.2c11.3-0.1,20.3-9.3,20.2-20.6c-0.1-11.2-9.2-20.2-20.4-20.2C318.9,344.7,309.8,353.9,309.8,365.3
			L309.8,365.3z"/>
		<path id="Tracé_117" class="st0" d="M377.1,370c-0.5,3.8,0.3,7.7,2.2,11.1c2.5,3,6.2,4.8,10.1,4.8c3.7,0,7.3-1.6,9.8-4.4
			c2.1-3.4,3-7.5,2.4-11.4v-29.7h5.6v31.2c0.6,5-1,10.1-4.4,13.8c-3.5,3.7-8.4,5.7-13.4,5.7c-4.8,0-9.4-1.8-12.9-5.1
			c-3.7-3.8-5.5-9.1-4.9-14.4v-31.2h5.6V370z"/>
		<path id="Tracé_118" class="st0" d="M430.4,390.2h-5.6v-49.8h7.2c9.5,0,18.2,2.5,18.2,13.7c0.4,7.2-5.1,13.3-12.3,13.7
			c-0.1,0-0.1,0-0.2,0l15.9,22.3h-6.8l-15.1-21.9h-1.4L430.4,390.2z M430.4,363.4h1.7c6.3,0,12.6-1.2,12.6-8.9c0-8.2-6-9-12.7-9
			h-1.7L430.4,363.4z"/>
		<path id="Tracé_119" class="st0" d="M515,365.1c0.7,6.3-1.2,12.7-5.2,17.6c-4.7,5.3-11.4,8.3-18.4,8.3
			c-14.2-0.2-25.6-12-25.3-26.2c0.2-14.2,12-25.6,26.2-25.3c8.2,0.1,15.8,4.1,20.5,10.8l-4,3.8c-3.7-5.9-10.2-9.4-17.1-9.4
			c-11.4,0.2-20.4,9.5-20.4,20.8c0,5.3,2.1,10.3,5.8,14.1c3.7,3.8,8.8,6.1,14.1,6.3c9.1,0.4,17-6.5,17.8-15.6h-14.8v-5.2H515z"/>
	</g>
	<g id="Groupe_22" transform="translate(8.982 6.5)">
		<path id="Tracé_120" class="st0" d="M442.2,108.6c-12.8,0-25.5,2.5-37.3,7.6l-0.1-0.1l-0.1,0.1c-18-23.7-45.9-37.7-75.7-37.9
			h-0.8c-21.3,0.2-42,7.4-58.7,20.7l-0.1-0.1l-0.1,0.1c-16.7-13.3-37.4-20.6-58.8-20.7h-0.8c-29.8,0.2-57.7,14.2-75.7,37.9l-0.1-0.1
			l-0.1,0.1c-11.8-5-24.5-7.6-37.4-7.6c-52.9,0.1-95.7,42.9-95.8,95.8c0,4.4,0.3,8.7,1,13.1c3,15.2,7,30.3,12.1,45l21.8,81.2l11.1-3
			l-21.9-81.2l-0.1-0.2c-4.8-14.1-8.7-28.4-11.7-43V216c-0.5-3.8-0.8-7.7-0.8-11.6c0-46.5,37.8-84.2,84.3-84.2c10.5,0,21,2,30.8,5.8
			c-26.5,45.8-10.8,104.4,35,130.8c2,1.1,4,2.2,6,3.2l4.5,2.2l2.8-4.1c29.7-43.8,18.2-103.3-25.5-133c-1.9-1.3-3.8-2.5-5.7-3.6
			c15.8-19.9,39.8-31.6,65.2-31.7h0.7c18.1,0.1,35.8,6.2,50.2,17.1c-37.1,37.7-36.6,98.2,1.1,135.3c1.2,1.2,2.5,2.4,3.8,3.5l3.8,3.4
			l3.8-3.4c39.6-35,43.4-95.4,8.5-135c-1.2-1.3-2.4-2.6-3.6-3.8c14.4-11,32-17,50.1-17.1h0.7c25.4,0.2,49.4,11.9,65.3,31.7
			c-45.8,26.5-61.4,85.1-34.9,130.9c1.1,2,2.3,3.9,3.6,5.7l2.8,4.1l4.5-2.2c47.6-23.1,67.3-80.5,44.2-128c-1-2-2-4-3.2-6
			c43.3-17.1,92.2,4.2,109.3,47.5c3.9,9.8,5.9,20.3,5.9,30.8c0,3.9-0.3,7.7-0.8,11.6v0.1c-3,14.6-6.9,29-11.7,43.1L492,340.5l11.1,3
			l21.8-81.2c5.1-14.7,9.1-29.7,12.1-45c0.6-4.3,0.9-8.7,0.9-13.1C537.9,151.5,495,108.6,442.2,108.6z M180.7,204.3
			c0,15.1-4,29.9-11.8,42.9c-40.5-22.9-54.8-74.3-31.9-114.8c0.3-0.5,0.6-1,0.9-1.5C164.4,145.8,180.8,173.9,180.7,204.3z
			 M269.4,233.4c-32.9-32.8-32.9-86.1,0-119c0,0,0,0,0,0C302.2,147.3,302.2,200.5,269.4,233.4C269.4,233.4,269.4,233.4,269.4,233.4z
			 M412.5,173.9c0.1,30.4-16.3,58.5-42.8,73.3c-23.7-40-10.5-91.7,29.6-115.4c0.5-0.3,1-0.6,1.5-0.9
			C408.5,143.9,412.6,158.8,412.5,173.9z"/>
		<path id="Tracé_121" class="st0" d="M269.3,71.3c19.7,0,35.7-16,35.7-35.7S289,0,269.3,0c-19.7,0-35.7,16-35.7,35.7
			C233.7,55.4,249.6,71.3,269.3,71.3z M269.3,11.5c13.3,0,24.1,10.8,24.1,24.1s-10.8,24.1-24.1,24.1S245.2,49,245.2,35.7
			C245.2,22.3,256,11.5,269.3,11.5C269.3,11.5,269.3,11.5,269.3,11.5L269.3,11.5z"/>
	</g>
</g>
</svg>
